<?xml version="1.0" standalone="no"?>
<!DOCTYPE svg PUBLIC "-//W3C//DTD SVG 1.1//EN" "http://www.w3.org/Graphics/SVG/1.1/DTD/svg11.dtd" >
<svg xmlns="http://www.w3.org/2000/svg">
<metadata></metadata>
<defs>
<font id="zutalorsregular" horiz-adv-x="1024" >
<font-face units-per-em="2048" ascent="1536" descent="-512" />
<missing-glyph horiz-adv-x="409" />
<glyph horiz-adv-x="2048" />
<glyph horiz-adv-x="2048" />
<glyph unicode="&#xd;" />
<glyph unicode=" "  horiz-adv-x="409" />
<glyph unicode="&#x09;" horiz-adv-x="409" />
<glyph unicode="&#xa0;" horiz-adv-x="409" />
<glyph unicode="!" horiz-adv-x="583" d="M113 143q0 76 50 128.5t128 52.5q76 0 128 -52.5t52 -128.5q0 -78 -52 -128t-128 -50q-78 0 -128 50.5t-50 127.5zM137 424v1098h307v-1098h-307z" />
<glyph unicode="#" horiz-adv-x="1587" d="M92 434v205h293l45 254h-250v205h295l76 422h280l-81 -422h223l76 422h282l-84 -422h269v-205h-308l-43 -254h260v-205h-299l-84 -434h-280l84 434h-217l-84 -434h-281l82 434h-254zM666 639h217l51 254h-223z" />
<glyph unicode="$" horiz-adv-x="1011" d="M83 446.5q-1 22.5 1 51.5h260v-31q0 -78 22.5 -121t51 -63.5t57.5 -24.5t41 -4q14 0 40 6t49.5 23.5t41 49.5t17.5 81q0 74 -47.5 105.5t-116 53t-148.5 48t-147 88.5q-43 39 -66.5 86t-34 96t-8.5 97t10 91q23 98 94.5 182.5t186.5 114.5v140h238v-140 q129 -35 202.5 -135t73.5 -242v-38h-260v38q0 76 -42 115t-112 39t-112.5 -53t-26.5 -139q8 -43 36 -71t69 -47.5t93 -33.5t109 -31q117 -35 188 -112.5t83 -194.5q8 -78 -6.5 -141.5t-37 -111.5t-47 -78.5t-34.5 -41.5q-37 -37 -82 -61.5t-94 -38.5v-139h-238v141 q-61 18 -114.5 55t-93.5 86t-63.5 108.5t-29.5 123.5q-2 14 -2 35q0 16 -1 38.5z" />
<glyph unicode="%" horiz-adv-x="1583" d="M113 1137v18v53q0 63 22.5 120.5t61.5 101t91 69t111 25.5q55 0 103.5 -21.5t86.5 -59.5t62.5 -89t30.5 -111l2 -18v-54q0 -66 -22.5 -123t-61.5 -100t-91.5 -67.5t-109.5 -24.5q-55 0 -103 21.5t-87 59.5t-63.5 89t-30.5 111h-2zM322 1171q2 -31 22.5 -58.5t54.5 -27.5 q33 0 55.5 26t22.5 60v37q-4 31 -24.5 58.5t-53.5 27.5t-55 -25.5t-22 -60.5v-37zM354 0l592 1522h293l-592 -1522h-293zM911 285v16v53q0 63 22.5 120.5t60.5 100.5t89.5 68t110.5 25q55 0 104.5 -21.5t87 -58.5t62.5 -88t31 -111h2v-18v-52q0 -66 -22.5 -124t-61.5 -101 t-91.5 -67.5t-111.5 -24.5q-55 0 -103.5 21.5t-86 59.5t-62 90t-31.5 112zM1116 319q4 -33 24.5 -60.5t53.5 -27.5t55.5 25t22.5 63v35q-2 33 -22.5 60.5t-55.5 27.5q-33 0 -55.5 -26.5t-22.5 -61.5v-35z" />
<glyph unicode="&#x26;" horiz-adv-x="1284" d="M113 477q0 66 19.5 117t41.5 88q27 43 64 78q-29 31 -56.5 80t-45 109.5t-22 127.5t18.5 135q8 29 36 81.5t81 102.5t138 88t210 38q66 0 120 -15.5t97 -37t74 -44t47 -39.5l-209 -208q-18 20 -43 31.5t-46.5 16.5t-37.5 6t-18 1q-4 0 -31 -3t-56.5 -18.5t-54 -46 t-24.5 -84.5q0 -51 16 -88q14 -33 48 -59.5t102 -26.5h127v-293h-134q-6 0 -31.5 -4t-54 -19.5t-51 -45t-22.5 -82.5q-2 -49 16 -86q16 -33 52 -59.5t108 -26.5q43 2 80 18q31 14 59.5 44t36.5 87v131h434v-290h-166q-4 -10 -28.5 -55.5t-76.5 -96.5t-136 -91t-207 -40 q-143 0 -235.5 46t-145.5 116.5t-73.5 155.5t-20.5 161z" />
<glyph unicode="'" horiz-adv-x="471" d="M133 1100l100 422h248l-174 -422h-174z" />
<glyph unicode="(" horiz-adv-x="616" d="M114.5 689.5q-8.5 146.5 7 305t59.5 324.5t128 332h266q-78 -166 -117.5 -332t-54 -324.5t-7.5 -305t26 -275.5q45 -301 153 -574h-266q-117 272 -166 574q-20 129 -28.5 275.5z" />
<glyph unicode=")" horiz-adv-x="626" d="M41 -158q109 272 154 574q18 129 25 275.5t-7 304t-55 322.5t-117 331h266q86 -166 132 -331t62.5 -322.5t8.5 -304t-29 -275.5q-51 -301 -174 -574h-266z" />
<glyph unicode="*" horiz-adv-x="1347" d="M102 999l88 273l361 -142l-23 392h58h162h67l-20 -392l362 142l88 -273l-377 -100l246 -307l-231 -168l-211 330l-209 -330l-232 168l246 307z" />
<glyph unicode="+" horiz-adv-x="1441" d="M113 549v289h456v510h303v-510h457v-289h-457v-549h-303v549h-456z" />
<glyph unicode="," horiz-adv-x="501" d="M72 -162l100 422h248l-174 -422h-174z" />
<glyph unicode="-" d="M113 541v311h798v-311h-798z" />
<glyph unicode="." horiz-adv-x="512" d="M113 143q0 76 50 128.5t128 52.5q76 0 128 -52.5t52 -128.5q0 -78 -52 -128t-128 -50q-78 0 -128 50.5t-50 127.5z" />
<glyph unicode="/" horiz-adv-x="1052" d="M113 2l594 1524h305l-594 -1524h-305z" />
<glyph unicode="0" horiz-adv-x="1021" d="M82 428v664q2 98 36 183t92 147.5t136 99.5t166 37t165 -37t135 -99.5t92 -147.5t36 -183v-664q-2 -96 -36 -181t-92 -148.5t-135 -100.5t-165 -37t-166 37t-136 100.5t-92 148.5t-36 181zM389 406q0 -53 39 -88t84 -35t80 36.5t35 86.5v704q0 27 -12.5 49.5t-31 38.5 t-41 25.5t-42.5 9.5q-47 0 -79 -35t-32 -88v-704z" />
<glyph unicode="1" horiz-adv-x="776" d="M51 1028v299l320 195h293v-1524h-308v1186z" />
<glyph unicode="2" horiz-adv-x="1032" d="M92 1075v15q0 94 35 178t94.5 146.5t137 99t163.5 36.5q104 0 187.5 -33.5t142.5 -95.5q53 -61 78.5 -146t15.5 -188l-1 -19t-9 -52t-26.5 -77t-53.5 -95l-360 -533h444v-311h-836v279l500 714q29 43 32 67.5t3 26.5q0 63 -32 98.5t-85 35.5q-47 0 -83 -39t-36 -92v-15 h-311z" />
<glyph unicode="3" horiz-adv-x="1030" d="M51 371v55h314v-53q23 -117 139 -117q25 0 48 9t41.5 25.5t31 39t12.5 49.5v178q0 16 -5 36.5t-15.5 39t-29 31t-42.5 16.5h-53h-46v256q23 -2 43 -2h32t20 4q29 10 44 35.5t15 56.5v117q-2 37 -28.5 69.5t-73.5 32.5q-43 0 -71 -26.5t-36 -71.5v-72h-313v72 q0 94 26.5 161.5t68.5 112.5t92 71t97.5 39t84 17t51.5 4q82 0 155.5 -29.5t129 -81.5t90 -123t38.5 -151v-96q-2 -68 -25.5 -129t-64.5 -112q111 -121 127 -289v-109q0 -98 -34.5 -183t-94 -148.5t-141.5 -99.5t-174 -36q-96 0 -178 28t-143.5 80t-96.5 127t-35 167z" />
<glyph unicode="4" horiz-adv-x="1058" d="M61 328v282l291 912h312l-271 -885h182v283h310v-283h71v-309h-71v-328h-310v328h-514z" />
<glyph unicode="5" horiz-adv-x="1054" d="M102 416h310l2 -25q0 -25 8 -48.5t24 -39.5q14 -12 39 -24.5t62 -12.5q63 0 104 38t41 97v195q-4 49 -40 92t-103 43q-27 0 -51.5 -13t-43 -31.5t-29.5 -39t-11 -35.5v-10h-312l43 920h779v-312h-459l-16 -237q41 25 86 38t79 13q174 0 276.5 -111.5t113.5 -316.5v-135 q0 -102 -36 -192.5t-97.5 -157t-144.5 -104.5t-177 -38q-82 0 -156 31t-133 85t-99 130t-55 168z" />
<glyph unicode="6" horiz-adv-x="1056" d="M82 432v625q2 254 110.5 375.5t323.5 121.5h2q82 0 156 -26.5t133 -74.5t100 -115.5t58 -149.5l6 -19l-309 -63l-3 18q-20 121 -141 121q-53 -2 -87 -38t-36 -91v-229q27 25 62 39t65.5 20t52 7t23.5 1q119 -4 192.5 -52t113.5 -115.5t53.5 -138t15.5 -118.5l2 -98 q0 -98 -35 -183t-94.5 -147.5t-139 -99.5t-171.5 -37h-5q-102 0 -184 33t-140.5 93.5t-91 146.5t-32.5 194zM395 375q0 -49 41.5 -84t98.5 -35q45 2 86 36t41 83v178q-4 47 -42 84t-85 37q-51 0 -93.5 -38t-46.5 -83v-178z" />
<glyph unicode="7" horiz-adv-x="917" d="M61 1210v312h836v-271l-489 -1253h-306l471 1212h-512z" />
<glyph unicode="8" horiz-adv-x="1052" d="M82 430v88q4 88 36 167t89 140q-41 47 -67.5 105.5t-30.5 122.5v96q0 82 32.5 155.5t88 129t130 88t158.5 32.5q82 0 156 -30.5t130 -85t90 -126t38 -151.5v-74q0 -72 -24.5 -137t-69.5 -119q55 -59 91 -134.5t42 -161.5v-105q0 -96 -35 -181t-95.5 -147.5t-142.5 -98.5 t-176 -36q-92 0 -172 36t-140 98.5t-94 147.5t-34 181zM395 365q0 -53 37 -91q39 -35 90 -34q55 0 94 36.5t39 88.5v161q-4 45 -37.5 86t-87.5 41h-6q-49 -4 -87 -41t-42 -88v-159zM412 1059q2 -33 20.5 -60.5t46.5 -37.5q8 -4 18.5 -6.5t20.5 -2.5l23 2q16 4 22 7 q29 14 46.5 39.5t17.5 58.5v90q-4 37 -33 70.5t-76 33.5q-43 0 -74.5 -31.5t-31.5 -72.5v-90z" />
<glyph unicode="9" horiz-adv-x="1056" d="M82 1085q0 98 35 184.5t94 149t140 99t173 36.5h4q203 0 323 -124.5t124 -344.5v-620q-4 -254 -111.5 -376t-322.5 -122q-84 0 -158 26.5t-133.5 75t-100 116t-59.5 147.5l-2 20l307 64l4 -19q18 -121 140 -121q53 0 86.5 37t36.5 90v230q-29 -25 -63 -38t-64.5 -19.5 t-52 -7.5t-23.5 -1q-119 2 -191.5 51.5t-112.5 117t-54.5 137t-16.5 116.5zM395 965q4 -47 42 -82t87 -37q49 2 91 38t47 83v176q0 51 -40.5 86t-97.5 35q-47 0 -88 -34t-41 -87v-178z" />
<glyph unicode=":" horiz-adv-x="591" d="M113 137q0 37 14 69t40 55.5t59.5 36.5t70.5 13t70.5 -13t58.5 -36.5t39 -55.5t14 -69q0 -72 -53 -123t-129 -51t-130 51.5t-54 122.5zM113 719q0 72 54 122t130 50t129 -50t53 -122q0 -74 -53 -125t-129 -51t-130 51t-54 125z" />
<glyph unicode=";" horiz-adv-x="610" d="M82 -160h184l176 439h-262zM135 715q0 37 14.5 68.5t39 55t56 38t68.5 14.5q39 0 73 -14.5t58.5 -38t39 -55t14.5 -68.5t-14.5 -69t-39 -55.5t-58.5 -36.5t-73 -13q-37 0 -68.5 13t-56 36.5t-39 55.5t-14.5 69z" />
<glyph unicode="&#x3c;" horiz-adv-x="1052" d="M37 621v247l872 336v-286l-585 -164l585 -170v-293z" />
<glyph unicode="=" horiz-adv-x="1675" d="M168 256v324h1327v-324h-1327zM168 815v320h1327v-320h-1327z" />
<glyph unicode="&#x3e;" horiz-adv-x="980" d="M37 291v293l586 170l-586 164v286l872 -336v-247z" />
<glyph unicode="?" horiz-adv-x="1052" d="M92 1309q66 96 170.5 155.5t231.5 59.5q98 0 183 -35t147.5 -96.5t99.5 -143.5t37 -174t-36 -173t-98.5 -141.5t-146.5 -96t-180 -37.5h-2h-4h-15v-205h-278l4 493h293q70 4 115.5 49.5t45.5 110.5q0 66 -48 113t-117 47q-70 0 -115 -44t-72 -97zM182 129q0 70 48.5 119 t117.5 49q70 0 119 -49t49 -119q0 -33 -13.5 -62.5t-36 -52t-53 -36t-65.5 -13.5t-64.5 13.5t-52 36t-36 52t-13.5 62.5z" />
<glyph unicode="@" horiz-adv-x="1601" d="M82 641q-20 242 47 434q29 82 79 161t130 141.5t192.5 101.5t268.5 43q147 2 255.5 -29t187.5 -84t131 -121.5t83 -140.5q74 -170 70 -387q-4 -141 -45 -236.5t-101.5 -148.5t-132 -67.5t-139.5 4t-123 66.5t-82 120q-14 -12 -31.5 -29.5t-39 -33t-48 -27t-59.5 -11.5 q-88 0 -141.5 38t-81 93.5t-34.5 120t-3 119.5q2 55 14.5 120.5t45 123t88 95.5t143.5 38q31 0 52 -8.5t37.5 -19.5t30 -25.5t27.5 -26.5l17 57h215q-31 -121 -45 -231q-6 -47 -10.5 -95t-2.5 -92.5t10.5 -81t24.5 -61.5q33 -45 69 -48t65.5 28.5t49 95t19.5 151.5 q-2 145 -55 259q-23 49 -60 95t-92 83t-131 59.5t-176 22.5q-111 0 -191 -28t-136 -72t-91 -101t-55 -117q-47 -141 -35 -317q6 -111 43 -187.5t93 -128t127 -80t144 -43.5q172 -33 385 0l142 -196q-217 -39 -381 -34t-286 40t-204 92.5t-135 124.5q-125 156 -139 381z M647 676q0 -37 34 -70t73 -33q20 0 41.5 9.5t38 24t27.5 32.5t11 37l11 192q0 18 -10.5 36t-27 33t-35.5 24.5t-38 9.5h-4q-18 0 -37.5 -9.5t-37 -24.5t-28 -32.5t-10.5 -36.5z" />
<glyph unicode="A" horiz-adv-x="1030" d="M10 4l328 1516h313l328 -1516h-283l-75 340h-252l-52 -340h-307zM393 610h203l-100 531z" />
<glyph unicode="B" horiz-adv-x="1130" d="M113 1524h508q104 0 185 -35t136 -95.5t84 -138t29 -163.5q0 -78 -32 -129.5t-71 -85.5q-45 -39 -100 -64q61 -27 113 -74q43 -41 78.5 -109.5t35.5 -172.5q0 -78 -18.5 -138.5t-49 -106.5t-69.5 -80t-80 -58q-96 -55 -215 -76h-514v1526h-20zM444 301h127q37 0 74 7 t65.5 26.5t46 54.5t17.5 92q0 18 -10 45t-31.5 50.5t-55.5 40t-81 16.5h-51h-101v-332zM444 913h127q37 0 74 6.5t65.5 26t46 54t17.5 92.5q0 57 -42 104t-136 47h-152v-330z" />
<glyph unicode="C" horiz-adv-x="1097" d="M102 418v684q0 94 36 176t97.5 143.5t145.5 96t180 34.5t180 -34.5t146.5 -96t98.5 -143.5t36 -176v-111h-295v111q0 68 -48 115t-118 47t-119 -47.5t-49 -114.5v-684q0 -33 13.5 -62.5t36 -51t53 -35t65.5 -13.5t64.5 13.5t52 35t36 51t13.5 62.5v190l295 -2v-188 q0 -94 -36 -176t-98.5 -143.5t-146.5 -96.5t-180 -35t-180 35t-145.5 96.5t-97.5 143.5t-36 176z" />
<glyph unicode="D" horiz-adv-x="1134" d="M133 -2v1526h311h152q96 0 176 -36t138.5 -97.5t90 -145.5t31.5 -178v-612q0 -96 -31.5 -179t-90 -144.5t-138.5 -97.5t-176 -36h-463zM420 328h149q78 0 128.5 37.5t50.5 111.5v590q0 27 -13.5 54.5t-37 48t-56.5 34t-72 13.5h-149v-889z" />
<glyph unicode="E" horiz-adv-x="1067" d="M133 -2v1524h846v-287h-553v-332h512v-287h-512v-331h559v-287h-852z" />
<glyph unicode="F" horiz-adv-x="1042" d="M133 0v1526h848v-293h-555v-324h506v-299h-506v-610h-293z" />
<glyph unicode="G" horiz-adv-x="1130" d="M102 416v686q0 94 36 176t97.5 143.5t145.5 96t182 34.5q96 0 180 -34.5t145.5 -96t97.5 -143.5t36 -176v-33h-291v49q0 63 -49 110.5t-119 47.5t-120 -47t-50 -111v-688q0 -33 13.5 -62.5t37 -51t54 -34t65.5 -12.5t65.5 12.5t53.5 34t36 51t13 62.5v148h-180v256h471 v-418q0 -94 -36 -176t-97.5 -143.5t-145.5 -96.5t-180 -35q-98 0 -182 35t-145.5 96.5t-97.5 143.5t-36 176z" />
<glyph unicode="H" horiz-adv-x="1232" d="M133 0v1522h293v-623h385v623h289v-1522h-289v606h-385v-606h-293z" />
<glyph unicode="I" horiz-adv-x="536" d="M133 0v1522h291v-1522h-291z" />
<glyph unicode="J" horiz-adv-x="1048" d="M20 440v127h287v-127q0 -68 47 -110.5t115 -42.5q70 0 117 43t47 110v1082h282v-1082q-4 -92 -37.5 -172t-93 -140t-140.5 -95t-175 -35t-176 35t-142.5 95t-95.5 140t-35 172z" />
<glyph unicode="K" horiz-adv-x="1077" d="M133 0v1522h293v-623l301 614h313l-378 -735l405 -778h-303l-338 623v-623h-293z" />
<glyph unicode="L" horiz-adv-x="937" d="M133 0v1520h293v-1231h471v-289h-764z" />
<glyph unicode="M" horiz-adv-x="1572" d="M133 0v1524h412l241 -953l242 953h412v-1524h-291v872l-234 -872h41h-294l-238 872v-872h-291z" />
<glyph unicode="N" horiz-adv-x="1261" d="M133 0v1524h344l359 -832v832h292v-1524h-290l-412 905v-905h-293z" />
<glyph unicode="O" horiz-adv-x="1126" d="M100 420v684q4 92 40 174t96.5 143.5t143.5 97t179 35.5q98 0 180 -35.5t143.5 -97t96.5 -143.5t39 -174v-684q-4 -94 -39 -176t-96.5 -143.5t-143.5 -96.5t-180 -35q-96 0 -179 35t-143.5 96.5t-96.5 143.5t-40 176zM393 420q0 -66 48 -113t118 -47q72 0 120 47t48 113 v684q0 66 -48 113t-120 47q-70 0 -118 -47.5t-48 -112.5v-684z" />
<glyph unicode="P" horiz-adv-x="1079" d="M133 -2v1524h428q129 0 223.5 -32t155.5 -90.5t90 -139t29 -179.5q0 -102 -27.5 -180t-70.5 -136t-97.5 -95t-107.5 -56q-31 -10 -65 -14t-64.5 -7t-53 -3h-30.5h-117v-592h-293zM424 866h135q43 0 80 7.5t65.5 29t45 60t16.5 104.5q0 16 -4 46t-21.5 59.5t-54.5 52 t-102 24.5h-43h-117v-383z" />
<glyph unicode="Q" horiz-adv-x="1126" d="M102 418v684q4 92 40 174t96.5 143.5t143.5 97t179 35.5t179 -35.5t143.5 -97t96.5 -143.5t40 -174v-684q-8 -104 -46 -194.5t-116 -153.5l90 -230h-305l-53 127h-29q-96 0 -179 36t-143.5 97.5t-96.5 143.5t-40 174zM393 418q0 -33 13.5 -62.5t36 -51t53 -34t65.5 -12.5 q70 0 118 47t48 113v684q0 66 -48 113t-118 47q-35 0 -65.5 -12.5t-53 -34t-36 -51t-13.5 -62.5v-684z" />
<glyph unicode="R" horiz-adv-x="1114" d="M133 0v1522h426q129 0 222 -32t153.5 -90.5t89.5 -139.5t29 -179q0 -90 -21.5 -158.5t-52.5 -117.5t-64.5 -81t-58.5 -48l215 -676h-317l-158 596q-12 -2 -26.5 -3t-26.5 -1h-119v-592h-291zM422 868h135q43 0 80 6.5t64.5 28t44 61.5t16.5 105q0 16 -4 45t-21.5 58.5 t-54.5 52t-102 24.5h-41h-117v-381z" />
<glyph unicode="S" horiz-adv-x="1110" d="M42 481q1 27 5 62h313v-39q0 -86 27 -134t62.5 -72t69.5 -29t46 -5q18 0 49 7.5t62 26.5t53.5 56t22.5 97q0 53 -27 85.5t-71 54t-101 37t-118.5 35t-123 47t-114.5 74.5q-53 45 -83 97.5t-42 106.5q-10 45 -11 90q1 8 1 18q2 54 12 104q14 70 54 133.5t100.5 112.5 t141.5 77.5t179 28.5q111 0 199 -32.5t150.5 -92t96 -140.5t33.5 -179v-47h-305v47q0 84 -54.5 129t-138.5 45q-39 0 -74.5 -16.5t-59.5 -45.5q-26 -30 -36 -70q-5 -20 -5 -43q0 -22 5 -46q10 -49 44 -79t84.5 -51.5t113 -37.5t131.5 -37q147 -35 232.5 -125t99.5 -217 q4 -31 4 -61q1 -53 -11 -99q-18 -74 -46.5 -129t-58 -91t-44.5 -46q-72 -70 -164 -99.5t-196 -29.5q-102 0 -190.5 36t-155 96.5t-108.5 141t-48 170.5q-2 14 -4 35q-1 11 -1 26v17z" />
<glyph unicode="T" horiz-adv-x="911" d="M0 1227v293h911v-293h-307v-1227h-295v1227h-309z" />
<glyph unicode="U" horiz-adv-x="1171" d="M133 399v1121h295v-1110q0 -33 12.5 -62t34 -50.5t51 -33.5t62.5 -12t62.5 12t51 33.5t34 50.5t12.5 62v1110h290v-1121q-4 -92 -39.5 -172t-96 -140t-141.5 -95t-173 -35t-173 35t-142.5 95t-98.5 140t-41 172z" />
<glyph unicode="V" horiz-adv-x="1034" d="M20 1522h306l192 -987l199 987h297l-340 -1522h-307z" />
<glyph unicode="W" horiz-adv-x="1609" d="M20 1524h287l166 -930l199 930h278h-20l203 -930l161 930h295l-293 -1524h-331l-164 825l-160 -825h-328z" />
<glyph unicode="X" horiz-adv-x="1099" d="M51 1522h297l203 -570l201 570h297l-285 -734l285 -788h-285l-213 580l-215 -580h-283l281 788z" />
<glyph unicode="Y" horiz-adv-x="993" d="M20 1522h291l183 -684l186 684h293l-342 -965v-557h-269v557z" />
<glyph unicode="Z" horiz-adv-x="1011" d="M82 0v268l504 985h-465v269h799v-279l-500 -975h510v-268h-848z" />
<glyph unicode="[" horiz-adv-x="765" d="M113 2v66v1355v228h274h287v-256h-287v-1293h287v-262h-287h-274v162z" />
<glyph unicode="\" horiz-adv-x="1062" d="M72 1526h305l594 -1524h-305z" />
<glyph unicode="]" horiz-adv-x="768" d="M92 102h285v1291h-285v256h285h278v-226v-1355v-228h-278h-285v262z" />
<glyph unicode="^" horiz-adv-x="1097" d="M92 647l336 873h248l330 -873h-293l-164 586l-164 -586h-293z" />
<glyph unicode="_" horiz-adv-x="1325" d="M92 -66h1141v-94h-1141v94zM496 -66h118h-118z" />
<glyph unicode="`" horiz-adv-x="356" d="M61 1710l115 41l119 -139l-82 -29z" />
<glyph unicode="a" horiz-adv-x="962" d="M41 508q0 82 7 177t40 178t97.5 138.5t181.5 55.5q76 0 133 -38t98 -77v82h293v-1026h-293v84q-41 -39 -98 -78t-133 -39q-106 0 -170 54.5t-99 135.5t-46 176t-11 177zM322 354q0 -55 38.5 -94t94.5 -39h4q55 0 94 39t39 94v287q0 55 -39 94t-94 39h-4q-55 0 -94 -39 t-39 -94v-287z" />
<glyph unicode="b" horiz-adv-x="991" d="M92 0v1522h293v-576q20 18 42 38t47.5 36t56 26.5t67.5 10.5q82 0 138.5 -29t95 -75t60 -105.5t32 -119.5t13.5 -117.5t3 -98.5q0 -37 -3 -91t-13.5 -115.5t-32 -121t-60 -108.5t-95 -79t-138.5 -30q-39 0 -69.5 11.5t-55 28t-46 38t-42.5 39.5v-84h-293zM385 373 q0 -53 39 -91t92 -38h2q53 0 91 37.5t38 91.5v280q0 55 -38 91t-91 36h-2q-53 0 -92 -35.5t-39 -91.5v-280z" />
<glyph unicode="c" horiz-adv-x="987" d="M82 352v322q0 80 35 149.5t93 121.5t134 83t160 31t159.5 -31t134 -83t93.5 -121.5t35 -149.5v-15h-295q0 53 -37 91t-90 38t-91 -37.5t-38 -91.5v-292q0 -53 38 -91t91 -38t90 37.5t37 91.5h295v-15q0 -80 -35 -150.5t-93.5 -122.5t-135 -82t-158.5 -30q-84 0 -161 30 t-135 82t-92 122.5t-34 150.5z" />
<glyph unicode="d" horiz-adv-x="1009" d="M51 512q0 41 3 98.5t14.5 117.5t33 119.5t59.5 105.5t95 75t139 29q37 0 67 -10.5t54.5 -28t46 -36.5t41.5 -38v576h293v-1520h-293v86q-20 -18 -40.5 -38.5t-45 -38t-54.5 -29t-69 -11.5q-82 0 -139 30t-95 78t-59.5 108.5t-33 121t-14.5 114.5t-3 91zM344 375 q0 -55 37 -93t90 -38h6q53 0 90 37.5t37 93.5v276q0 55 -37 93t-90 38h-6q-53 0 -90 -37.5t-37 -93.5v-276z" />
<glyph unicode="e" horiz-adv-x="983" d="M51 358v308q0 82 39 152.5t101.5 123.5t140.5 84t155 31q78 0 156 -31t139.5 -84t100.5 -123.5t39 -152.5v-265h-588v-116q0 2 8 -7.5t26.5 -21.5t47 -22.5t71.5 -10.5q41 0 69 11.5t46 27.5q23 16 37 39h281q-10 -57 -45 -116.5t-90.5 -107.5t-131 -79t-166.5 -31 q-78 0 -155.5 31t-140 84t-101.5 123.5t-39 152.5zM334 594h305v113q0 27 -14.5 47t-36 34.5t-48 21.5t-53.5 7t-53 -7t-49 -21.5t-37 -35t-14 -46.5v-113z" />
<glyph unicode="f" horiz-adv-x="708" d="M82 733v293h129v137q0 82 35 152.5t92 124t133 84t156 30.5v-299q-53 0 -87 -37.5t-34 -91.5v-100h131v-293h-129v-735h-297v735h-129z" />
<glyph unicode="g" horiz-adv-x="1044" d="M92 510q0 100 11.5 197.5t46 175.5t102 126t182.5 48q74 0 124 -39t91 -78v88h293v-1221q-4 -80 -40 -147.5t-93 -116.5t-132 -75.5t-155 -26.5t-154.5 30.5t-131 83t-91 123t-34.5 150.5v45h284v-33q0 -53 37 -92t90 -39t91 39t38 92v242q-41 -37 -95 -76t-122 -39 q-121 0 -189.5 54.5t-102 135.5t-42 176t-8.5 177zM387 371q0 -53 38 -92t91 -39h4q53 0 91 38.5t38 92.5v282q0 53 -38 90t-91 37h-4q-53 0 -91 -36.5t-38 -90.5v-282z" />
<glyph unicode="h" horiz-adv-x="1032" d="M113 0v1522h295v-586q20 18 47.5 38.5t58.5 39t61.5 30t59.5 11.5q121 0 187.5 -52.5t97 -130t36 -171t5.5 -173.5v-528h-293v631q0 53 -38 91t-91 38q-55 0 -94 -38t-39 -91v-631h-293z" />
<glyph unicode="i" horiz-adv-x="538" d="M102 1382q0 37 14.5 68t39 54.5t57.5 36.5t70 13q74 0 124 -50t50 -122q0 -37 -13.5 -69.5t-37 -57t-55 -40t-68.5 -15.5t-70 15.5t-57.5 40t-39 57.5t-14.5 69zM133 -2v1026h295v-1026h-295z" />
<glyph unicode="j" horiz-adv-x="571" d="M51 -256q53 0 83 40t30 93v1147h299v-1186q0 -82 -25.5 -154.5t-77 -126t-128 -85t-181.5 -31.5v303zM131 1374q0 74 52.5 127t125.5 53q37 0 70 -14t57.5 -38.5t38.5 -57.5t14 -70q0 -76 -53 -127t-127 -51t-126 51t-52 127z" />
<glyph unicode="k" horiz-adv-x="1005" d="M113 2v1522h293v-881l251 334h293l-284 -391l329 -584h-293l-208 352l-88 -116v-236h-293z" />
<glyph unicode="l" horiz-adv-x="520" d="M113 -2v1526h305v-1526h-305z" />
<glyph unicode="m" horiz-adv-x="1548" d="M82 0v1024h295v-82q20 18 47 37.5t54.5 36t57 27t56.5 10.5q47 0 89 -13.5t76 -35t60.5 -48t44.5 -53.5v2q66 74 143.5 111t147.5 37q121 0 188.5 -52.5t99.5 -131t39 -172t7 -173.5v-524h-291v649q0 53 -35 92t-90 39q-27 0 -52.5 -10t-44 -28.5t-29.5 -42t-11 -50.5 v-649h-279h-8h-6v649q0 27 -10 50.5t-29.5 42t-45.5 28.5t-52 10q-53 0 -91 -39t-38 -92v-649h-293z" />
<glyph unicode="n" horiz-adv-x="1032" d="M113 0v1028h293v-86q20 18 46.5 38.5t54.5 37t57.5 28t56.5 11.5q123 0 191.5 -52.5t101 -132t40 -173t7.5 -175.5v-524h-295v633q0 53 -38 91t-91 38q-55 0 -94.5 -38t-39.5 -91v-633h-290z" />
<glyph unicode="o" horiz-adv-x="1009" d="M82 352v322q10 80 47 149.5t93.5 121.5t129 83t152.5 31h2q80 0 152.5 -31t129 -83t93.5 -121.5t47 -149.5v-322q-10 -80 -47 -150.5t-93.5 -122.5t-129 -82t-152.5 -30h-2q-80 0 -152.5 30t-129 82t-93.5 122.5t-47 150.5zM375 367q0 -53 38 -82t91 -29h2q53 0 91 28.5 t38 82.5v292q0 53 -38 81t-91 28h-2q-53 0 -91 -27.5t-38 -81.5v-292z" />
<glyph unicode="p" horiz-adv-x="1005" d="M113 -532v1556h295v-82q20 18 40.5 37.5t46 37t55 28t68.5 10.5q82 0 140.5 -30t96.5 -78t60.5 -108.5t32.5 -121t13.5 -114.5t3.5 -91q0 -66 -8.5 -159t-42 -180t-103.5 -148.5t-193 -61.5q-76 0 -122.5 38t-87.5 77v-610h-295zM408 369q0 -53 37.5 -91t91.5 -38h6 q53 0 91 37.5t38 91.5v282q0 53 -38 91t-91 38h-6q-53 0 -91 -37.5t-38 -91.5v-282z" />
<glyph unicode="q" horiz-adv-x="1044" d="M82 516q0 37 3 91.5t13.5 113.5t32 119.5t60 108.5t95 78t138.5 30q39 0 69.5 -11.5t55 -28t46 -36.5t44.5 -39v86h293v-1554h-293v606q-23 -18 -44.5 -37.5t-47 -36t-55 -27t-68.5 -10.5q-82 0 -138.5 29t-95 76t-60 105.5t-32 119.5t-13.5 117.5t-3 99.5zM373 375 q0 -55 39 -93t92 -38h2q55 0 94 37.5t39 93.5v278q0 53 -39 91t-94 38h-2q-53 0 -92 -37.5t-39 -91.5v-278z" />
<glyph unicode="r" horiz-adv-x="718" d="M113 0v1022h290v-86q25 27 60 49.5t71.5 37.5t72.5 23q28 6 50 6q6 0 11 -1v-308l-41 5q-18 3 -38 3q-25 -1 -53 -5q-50 -8 -91.5 -34t-41.5 -91v-621h-290z" />
<glyph unicode="s" horiz-adv-x="888" d="M47 305v31h270q0 -10 1 -3t1 -3q0 -51 37 -88t95 -37q72 0 97 38q17 26 17 51q0 12 -4 25q-12 37 -66.5 57.5t-122 42t-134 51.5t-105.5 87q-52 78 -52 167q0 86 43 158q44 74 129 124.5t204 50.5q113 0 182.5 -40t106 -93.5t49 -108.5t12.5 -88v-16h-264v10 q0 12 -2 27.5t-11.5 30t-27 24.5t-45.5 10q-57 0 -82 -36q-15 -21 -15 -48q0 -18 7 -39q8 -29 36.5 -44t73.5 -28.5t102.5 -30t122.5 -46.5q55 -27 90 -80q34 -53 44 -117q3 -23 4 -46q0 -41 -10 -84q-16 -67 -62.5 -122t-123.5 -90t-187 -35q-59 0 -130 15.5t-133.5 54.5 t-104.5 104.5t-42 163.5z" />
<glyph unicode="t" horiz-adv-x="706" d="M82 735v291h131v496h291v-496h131v-291h-131v-733h-291v733h-131z" />
<glyph unicode="u" horiz-adv-x="1040" d="M82 498v524h293v-631q0 -53 38 -92t91 -39t92 39t39 92v633h293v-1024h-293v80q-20 -18 -46 -37.5t-54.5 -36t-58 -28t-58.5 -11.5q-123 0 -188.5 52.5t-97.5 131t-39 172t-11 175.5z" />
<glyph unicode="v" horiz-adv-x="892" d="M0 1024h295l154 -629l151 629h293l-303 -1026h-283z" />
<glyph unicode="w" horiz-adv-x="1484" d="M0 1024h293l151 -629l156 629h283l159 -629l148 629h295l-303 -1026h-291l-150 596l-149 -596h-291z" />
<glyph unicode="x" horiz-adv-x="976" d="M41 0l295 514l-295 514h301l145 -256l144 256h305l-297 -514l293 -514h-301l-144 260l-145 -260h-301z" />
<glyph unicode="y" horiz-adv-x="901" d="M20 1024h295l146 -637l143 637h297l-444 -1550h-273l138 526z" />
<glyph unicode="z" horiz-adv-x="974" d="M113 0v293l450 479h-450v252h780v-281l-451 -491h451v-252h-780z" />
<glyph unicode="{" horiz-adv-x="825" d="M113 653v90v2v91q37 4 65 20q23 14 41 40t10 69q-23 127 -21.5 219t11.5 151q10 70 31 119q27 51 81 89t121.5 61.5t139.5 34t131 8.5v-232h-27q-26 0 -61 -6t-70 -21.5t-55 -46.5q-20 -25 -29 -69q-8 -39 -8 -103.5t23 -162.5q10 -43 4 -82t-21.5 -71t-39 -59.5 t-46.5 -48.5q23 -23 46.5 -49t39 -59t21.5 -72t-4 -82q-23 -98 -23 -162.5t8 -103.5q8 -45 29 -70q20 -31 55 -46t70 -21t61 -6h27v-232q-59 -2 -131 8.5t-139.5 34t-122 60.5t-80.5 90q-20 49 -31 119q-10 59 -11 152t21 222q8 41 -10 65.5t-41 39.5q-29 14 -65 20z" />
<glyph unicode="|" horiz-adv-x="520" d="M113 -160v1807h295v-1807h-295z" />
<glyph unicode="}" horiz-adv-x="823" d="M102 72q43 0 84 8q35 6 71 20.5t58 42.5q20 25 29 72q8 39 7 104.5t-23 163.5q-20 88 9.5 153.5t72.5 106.5q-43 43 -73 110t-9 155q23 98 23.5 161.5t-7.5 102.5q-8 45 -29 69q-23 29 -58.5 45.5t-70.5 22.5q-41 8 -84 6v234q57 2 128 -8.5t138.5 -35t123 -62.5 t81.5 -91q20 -47 31 -117q10 -59 10 -151t-20 -221q-8 -45 9.5 -70t41.5 -37q27 -14 66 -20v-93v-88q-39 -6 -66 -22q-25 -14 -42 -39t-9 -68q20 -129 20 -222t-10 -152q-10 -70 -31 -117q-27 -53 -82 -91t-122.5 -61.5t-138 -34t-128.5 -8.5v232z" />
<glyph unicode="&#xa1;" horiz-adv-x="583" d="M113 1343q0 78 50 128.5t128 50.5q76 0 128 -50.5t52 -128.5q0 -76 -52 -128t-128 -52q-78 0 -128 52.5t-50 127.5zM137 -35v1098h307v-1098h-307z" />
<glyph unicode="&#xa2;" horiz-adv-x="1132" d="M154 674v327q0 66 22.5 125.5t62.5 107.5t95 85t119 55v152h260v-152q63 -20 118.5 -56t95.5 -85t62.5 -107.5t22.5 -124.5v-16h-301q0 55 -38 93t-93 38q-53 0 -90 -38t-37 -93v-297q0 -53 36.5 -91t90.5 -38q55 0 93 38t38 91h301v-14q0 -66 -23.5 -124t-63.5 -106.5 t-94.5 -84t-117.5 -56.5v-141h-260v141q-63 18 -118.5 55t-95.5 85.5t-62.5 106.5t-22.5 124z" />
<glyph unicode="&#xa8;" horiz-adv-x="774" d="M143 1731q0 41 28 68.5t69 27.5t68.5 -27.5t27.5 -68.5t-27.5 -69t-68.5 -28t-69 28t-28 69zM438 1731q0 41 28 68.5t69 27.5t68.5 -27.5t27.5 -68.5t-28 -69t-68 -28q-41 0 -69 28t-28 69z" />
<glyph unicode="&#xad;" d="M113 541v311h798v-311h-798z" />
<glyph unicode="&#xb4;" horiz-adv-x="387" d="M133 1612l119 139l115 -41l-152 -127z" />
<glyph unicode="&#xbf;" horiz-adv-x="1134" d="M113 180l215 215q27 -53 71.5 -97t114.5 -44t118 47t48 113t-46 110.5t-116 48.5h-293l-4 494h279v-205h14h4h2q96 -2 180 -38t146.5 -96t98.5 -141t36 -173t-37 -174t-99.5 -143.5t-147.5 -96.5t-183 -35q-127 0 -231.5 59.5t-169.5 155.5zM203 1360q0 33 13 62.5 t35.5 52t52.5 36t65 13.5t65.5 -13.5t53 -36t36 -52t13.5 -62.5q0 -70 -49.5 -119t-118.5 -49q-70 0 -118 49t-48 119z" />
<glyph unicode="&#xc0;" horiz-adv-x="1030" d="M10 4l328 1516h313l328 -1516h-283l-75 340h-252l-52 -340h-307zM344 1710l115 41l119 -139l-82 -29zM393 610h203l-100 531z" />
<glyph unicode="&#xc1;" horiz-adv-x="1030" d="M10 4l328 1516h313l328 -1516h-283l-75 340h-252l-52 -340h-307zM393 610h203l-100 531zM416 1612l119 139l114 -41l-151 -127z" />
<glyph unicode="&#xc4;" horiz-adv-x="1099" d="M80 4l328 1516h313l328 -1516h-283l-76 340h-252l-51 -340h-307zM322 1751q0 41 27.5 68.5t68.5 27.5t68.5 -27.5t27.5 -68.5t-27.5 -68.5t-68.5 -27.5t-68.5 27.5t-27.5 68.5zM463 610h203l-101 531zM616 1751q0 41 28 68.5t69 27.5t68.5 -27.5t27.5 -68.5t-27.5 -68.5 t-68.5 -27.5t-69 27.5t-28 68.5z" />
<glyph unicode="&#xc6;" horiz-adv-x="1523" />
<glyph unicode="&#xc8;" horiz-adv-x="1067" d="M133 -2h852v287h-559v331h512v287h-512v332h553v287h-846v-1524zM416 1710l114 41l119 -139l-82 -29z" />
<glyph unicode="&#xc9;" horiz-adv-x="1067" d="M133 -2v1524h846v-287h-553v-332h512v-287h-512v-331h559v-287h-852zM477 1612l119 139l115 -41l-152 -127z" />
<glyph unicode="&#xcb;" horiz-adv-x="1067" d="M133 -2h852v287h-559v331h512v287h-512v332h553v287h-846v-1524zM313 1751q0 41 28 68.5t69 27.5t68.5 -27.5t27.5 -68.5t-27.5 -68.5t-68.5 -27.5t-69 27.5t-28 68.5zM608 1751q0 41 28 68.5t69 27.5t68.5 -27.5t27.5 -68.5t-28 -68.5t-68 -27.5q-41 0 -69 27.5 t-28 68.5z" />
<glyph unicode="&#xcc;" horiz-adv-x="536" d="M119 1710l114 41l119 -139l-82 -29zM133 0v1522h291v-1522h-291z" />
<glyph unicode="&#xcd;" horiz-adv-x="536" d="M133 0v1522h291v-1522h-291zM193 1612l118 139l115 -41l-152 -127z" />
<glyph unicode="&#xcf;" horiz-adv-x="536" d="M27 1751q0 41 27.5 68.5t68.5 27.5t68.5 -27.5t27.5 -68.5t-27.5 -68.5t-68.5 -27.5t-68.5 27.5t-27.5 68.5zM133 0v1522h291v-1522h-291zM322 1751q0 41 27.5 68.5t68.5 27.5t68.5 -27.5t27.5 -68.5t-27.5 -68.5t-68.5 -27.5t-68.5 27.5t-27.5 68.5z" />
<glyph unicode="&#xd2;" horiz-adv-x="1126" d="M100 420v684q4 92 40 174t96.5 143.5t143.5 97t179 35.5q98 0 180 -35.5t143.5 -97t96.5 -143.5t39 -174v-684q-4 -94 -39 -176t-96.5 -143.5t-143.5 -96.5t-180 -35q-96 0 -179 35t-143.5 96.5t-96.5 143.5t-40 176zM393 420q0 -66 48 -113t118 -47q72 0 120 47t48 113 v684q0 66 -48 113t-120 47q-70 0 -118 -47.5t-48 -112.5v-684zM416 1710l114 41l119 -139l-82 -29z" />
<glyph unicode="&#xd3;" horiz-adv-x="1126" d="M100 420v684q4 92 40 174t96.5 143.5t143.5 97t179 35.5q98 0 180 -35.5t143.5 -97t96.5 -143.5t39 -174v-684q-4 -94 -39 -176t-96.5 -143.5t-143.5 -96.5t-180 -35q-96 0 -179 35t-143.5 96.5t-96.5 143.5t-40 176zM393 420q0 -66 48 -113t118 -47q72 0 120 47t48 113 v684q0 66 -48 113t-120 47q-70 0 -118 -47.5t-48 -112.5v-684zM512 1612l119 139l114 -41l-151 -127z" />
<glyph unicode="&#xd6;" horiz-adv-x="1126" d="M100 420v684q4 92 40 174t96.5 143.5t143.5 97t179 35.5q98 0 180 -35.5t143.5 -97t96.5 -143.5t39 -174v-684q-4 -94 -39 -176t-96.5 -143.5t-143.5 -96.5t-180 -35q-96 0 -179 35t-143.5 96.5t-96.5 143.5t-40 176zM313 1751q0 41 28 68.5t69 27.5t68.5 -27.5 t27.5 -68.5t-27.5 -68.5t-68.5 -27.5t-69 27.5t-28 68.5zM393 420q0 -66 48 -113t118 -47q72 0 120 47t48 113v684q0 66 -48 113t-120 47q-70 0 -118 -47.5t-48 -112.5v-684zM608 1751q0 41 28 68.5t69 27.5t68.5 -27.5t27.5 -68.5t-28 -68.5t-68 -27.5q-41 0 -69 27.5 t-28 68.5z" />
<glyph unicode="&#xd8;" horiz-adv-x="1064" d="M100 430v662q2 96 37 180t92.5 147.5t134 99t164.5 35.5q86 0 164 -35.5t136.5 -99t92 -147.5t35.5 -180v-662q-2 -96 -35.5 -180t-92 -147.5t-136.5 -99.5t-164 -36q-88 0 -164.5 36t-134 99.5t-92.5 147.5t-37 180zM410 410q0 -53 37.5 -88t80.5 -35q45 0 80 36.5 t35 86.5v444l-233 -367v-77zM410 657l233 367v84q0 51 -41 87t-84 36q-45 0 -76.5 -36t-31.5 -87v-451z" />
<glyph unicode="&#xd9;" horiz-adv-x="1171" d="M133 399v1121h295v-1110q0 -33 12.5 -62t34 -50.5t51 -33.5t62.5 -12t62.5 12t51 33.5t34 50.5t12.5 62v1110h290v-1121q-4 -92 -39.5 -172t-96 -140t-141.5 -95t-173 -35t-173 35t-142.5 95t-98.5 140t-41 172zM442 1710l115 41l119 -139l-82 -29z" />
<glyph unicode="&#xda;" horiz-adv-x="1171" d="M133 399v1121h295v-1110q0 -33 12.5 -62t34 -50.5t51 -33.5t62.5 -12t62.5 12t51 33.5t34 50.5t12.5 62v1110h290v-1121q-4 -92 -39.5 -172t-96 -140t-141.5 -95t-173 -35t-173 35t-142.5 95t-98.5 140t-41 172zM512 1612l119 139l114 -41l-151 -127z" />
<glyph unicode="&#xdc;" horiz-adv-x="1171" d="M133 399v1121h295v-1110q0 -33 12.5 -62t34 -50.5t51 -33.5t62.5 -12t62.5 12t51 33.5t34 50.5t12.5 62v1110h290v-1121q-4 -92 -39.5 -172t-96 -140t-141.5 -95t-173 -35t-173 35t-142.5 95t-98.5 140t-41 172zM342 1751q0 41 27.5 68.5t68.5 27.5t69 -27.5t28 -68.5 t-28 -68.5t-69 -27.5t-68.5 27.5t-27.5 68.5zM637 1751q0 41 27.5 68.5t68.5 27.5t68.5 -27.5t27.5 -68.5t-27.5 -68.5t-68.5 -27.5t-68.5 27.5t-27.5 68.5z" />
<glyph unicode="&#xdd;" horiz-adv-x="993" d="M20 1522l342 -965v-557h269v557l342 965h-293l-186 -684l-183 684h-291zM379 2109l119 140l114 -41l-151 -127zM416 1612l119 139l114 -41l-151 -127z" />
<glyph unicode="&#xe0;" horiz-adv-x="962" d="M41 508q0 82 7 177t40 178t97.5 138.5t181.5 55.5q76 0 133 -38t98 -77v82h293v-1026h-293v84q-41 -39 -98 -78t-133 -39q-106 0 -170 54.5t-99 135.5t-46 176t-11 177zM322 354q0 -55 38.5 -94t94.5 -39h4q55 0 94 39t39 94v287q0 55 -39 94t-94 39h-4q-55 0 -94 -39 t-39 -94v-287zM377 1227l115 41l118 -140l-82 -28z" />
<glyph unicode="&#xe1;" horiz-adv-x="962" d="M41 508q0 82 7 177t40 178t97.5 138.5t181.5 55.5q76 0 133 -38t98 -77v82h293v-1026h-293v84q-41 -39 -98 -78t-133 -39q-106 0 -170 54.5t-99 135.5t-46 176t-11 177zM322 354q0 -55 38.5 -94t94.5 -39h4q55 0 94 39t39 94v287q0 55 -39 94t-94 39h-4q-55 0 -94 -39 t-39 -94v-287zM406 1128l118 140l115 -41l-152 -127z" />
<glyph unicode="&#xe4;" horiz-adv-x="962" d="M41 508q0 82 7 177t40 178t97.5 138.5t181.5 55.5q76 0 133 -38t98 -77v82h293v-1026h-293v84q-41 -39 -98 -78t-133 -39q-106 0 -170 54.5t-99 135.5t-46 176t-11 177zM217 1262q0 41 28 68.5t69 27.5t68.5 -27.5t27.5 -68.5t-27.5 -69t-68.5 -28t-69 28t-28 69z M322 354q0 -55 38.5 -94t94.5 -39h4q55 0 94 39t39 94v287q0 55 -39 94t-94 39h-4q-55 0 -94 -39t-39 -94v-287zM512 1262q0 41 28 68.5t69 27.5t68.5 -27.5t27.5 -68.5t-28 -69t-68 -28q-41 0 -69 28t-28 69z" />
<glyph unicode="&#xe8;" horiz-adv-x="983" d="M51 358v308q0 82 39 152.5t101.5 123.5t140.5 84t155 31q78 0 156 -31t139.5 -84t100.5 -123.5t39 -152.5v-265h-588v-116q0 2 8 -7.5t26.5 -21.5t47 -22.5t71.5 -10.5q41 0 69 11.5t46 27.5q23 16 37 39h281q-10 -57 -45 -116.5t-90.5 -107.5t-131 -79t-166.5 -31 q-78 0 -155.5 31t-140 84t-101.5 123.5t-39 152.5zM334 594h305v113q0 27 -14.5 47t-36 34.5t-48 21.5t-53.5 7t-53 -7t-49 -21.5t-37 -35t-14 -46.5v-113zM401 1227l115 41l119 -140l-82 -28z" />
<glyph unicode="&#xe9;" horiz-adv-x="983" d="M51 358v308q0 82 39 152.5t101.5 123.5t140.5 84t155 31q78 0 156 -31t139.5 -84t100.5 -123.5t39 -152.5v-265h-588v-116q0 2 8 -7.5t26.5 -21.5t47 -22.5t71.5 -10.5q41 0 69 11.5t46 27.5q23 16 37 39h281q-10 -57 -45 -116.5t-90.5 -107.5t-131 -79t-166.5 -31 q-78 0 -155.5 31t-140 84t-101.5 123.5t-39 152.5zM334 594h305v113q0 27 -14.5 47t-36 34.5t-48 21.5t-53.5 7t-53 -7t-49 -21.5t-37 -35t-14 -46.5v-113zM426 1128l119 140l114 -41l-151 -127z" />
<glyph unicode="&#xeb;" horiz-adv-x="983" d="M51 358v308q0 82 39 152.5t101.5 123.5t140.5 84t155 31q78 0 156 -31t139.5 -84t100.5 -123.5t39 -152.5v-265h-588v-116q0 2 8 -7.5t26.5 -21.5t47 -22.5t71.5 -10.5q41 0 69 11.5t46 27.5q23 16 37 39h281q-10 -57 -45 -116.5t-90.5 -107.5t-131 -79t-166.5 -31 q-78 0 -155.5 31t-140 84t-101.5 123.5t-39 152.5zM247 1262q0 41 28 68.5t69 27.5t68.5 -27.5t27.5 -68.5t-27.5 -69t-68.5 -28t-69 28t-28 69zM334 594h305v113q0 27 -14.5 47t-36 34.5t-48 21.5t-53.5 7t-53 -7t-49 -21.5t-37 -35t-14 -46.5v-113zM542 1262q0 41 28 68.5 t69 27.5t68.5 -27.5t27.5 -68.5t-28 -69t-68 -28q-41 0 -69 28t-28 69z" />
<glyph unicode="&#xec;" horiz-adv-x="538" d="M133 -2v1026h295v-1026h-295zM178 1233l115 41l119 -139l-82 -29z" />
<glyph unicode="&#xed;" horiz-adv-x="557" d="M133 -2v1026h295v-1026h-295zM203 1126l119 140l114 -41l-151 -127z" />
<glyph unicode="&#xef;" horiz-adv-x="538" d="M35 1341q0 41 27.5 69t68.5 28t68.5 -28t27.5 -69t-27.5 -68.5t-68.5 -27.5t-68.5 27.5t-27.5 68.5zM133 -2h295v1026h-295v-1026zM330 1341q0 41 27.5 69t68.5 28t68.5 -28t27.5 -69t-27.5 -68.5t-68.5 -27.5t-68.5 27.5t-27.5 68.5z" />
<glyph unicode="&#xf2;" horiz-adv-x="1009" d="M82 352v322q10 80 47 149.5t93.5 121.5t129 83t152.5 31h2q80 0 152.5 -31t129 -83t93.5 -121.5t47 -149.5v-322q-10 -80 -47 -150.5t-93.5 -122.5t-129 -82t-152.5 -30h-2q-80 0 -152.5 30t-129 82t-93.5 122.5t-47 150.5zM375 367q0 -53 38 -82t91 -29h2q53 0 91 28.5 t38 82.5v292q0 53 -38 81t-91 28h-2q-53 0 -91 -27.5t-38 -81.5v-292zM426 1227l115 41l118 -140l-81 -28z" />
<glyph unicode="&#xf3;" horiz-adv-x="1009" d="M82 352v322q10 80 47 149.5t93.5 121.5t129 83t152.5 31h2q80 0 152.5 -31t129 -83t93.5 -121.5t47 -149.5v-322q-10 -80 -47 -150.5t-93.5 -122.5t-129 -82t-152.5 -30h-2q-80 0 -152.5 30t-129 82t-93.5 122.5t-47 150.5zM375 367q0 -53 38 -82t91 -29h2q53 0 91 28.5 t38 82.5v292q0 53 -38 81t-91 28h-2q-53 0 -91 -27.5t-38 -81.5v-292zM426 1128l119 140l114 -41l-151 -127z" />
<glyph unicode="&#xf6;" horiz-adv-x="1009" d="M82 352v322q10 80 47 149.5t93.5 121.5t129 83t152.5 31h2q80 0 152.5 -31t129 -83t93.5 -121.5t47 -149.5v-322q-10 -80 -47 -150.5t-93.5 -122.5t-129 -82t-152.5 -30h-2q-80 0 -152.5 30t-129 82t-93.5 122.5t-47 150.5zM258 1262q0 41 28 68.5t69 27.5t68.5 -27.5 t27.5 -68.5t-27.5 -69t-68.5 -28t-69 28t-28 69zM375 367q0 -53 38 -82t91 -29h2q53 0 91 28.5t38 82.5v292q0 53 -38 81t-91 28h-2q-53 0 -91 -27.5t-38 -81.5v-292zM553 1262q0 41 28 68.5t69 27.5t68.5 -27.5t27.5 -68.5t-28 -69t-68 -28q-41 0 -69 28t-28 69z" />
<glyph unicode="&#xf7;" horiz-adv-x="1331" d="M33 541v311h1198v-311h-1198zM430 225q0 39 15.5 73t41 59.5t60.5 41t76 15.5t76.5 -15.5t62 -41t42 -59.5t15.5 -73t-15.5 -72.5t-42 -59t-62 -40t-76.5 -14.5t-76 14.5t-60.5 40t-41 59t-15.5 72.5zM430 1206q0 39 15.5 73t41 59.5t60.5 40t76 14.5t76.5 -14.5t62 -40 t42 -59.5t15.5 -73q0 -78 -57 -131t-139 -53q-41 0 -76 14.5t-60.5 39t-41 58t-15.5 72.5z" />
<glyph unicode="&#xf9;" horiz-adv-x="1040" d="M82 498v524h293v-631q0 -53 38 -92t91 -39t92 39t39 92v633h293v-1024h-293v80q-20 -18 -46 -37.5t-54.5 -36t-58 -28t-58.5 -11.5q-123 0 -188.5 52.5t-97.5 131t-39 172t-11 175.5zM444 1227l115 41l119 -140l-82 -28z" />
<glyph unicode="&#xfa;" horiz-adv-x="1040" d="M82 498v524h293v-631q0 -53 38 -92t91 -39t92 39t39 92v633h293v-1024h-293v80q-20 -18 -46 -37.5t-54.5 -36t-58 -28t-58.5 -11.5q-123 0 -188.5 52.5t-97.5 131t-39 172t-11 175.5zM446 1128l119 140l115 -41l-152 -127z" />
<glyph unicode="&#xfc;" horiz-adv-x="1040" d="M82 498v524h293v-631q0 -53 38 -92t91 -39t92 39t39 92v633h293v-1024h-293v80q-20 -18 -46 -37.5t-54.5 -36t-58 -28t-58.5 -11.5q-123 0 -188.5 52.5t-97.5 131t-39 172t-11 175.5zM262 1262q0 41 28 68.5t69 27.5t68.5 -27.5t27.5 -68.5t-27.5 -69t-68.5 -28t-69 28 t-28 69zM557 1262q0 41 28 68.5t69 27.5t68.5 -27.5t27.5 -68.5t-28 -69t-68 -28q-41 0 -69 28t-28 69z" />
<glyph unicode="&#xfd;" horiz-adv-x="901" d="M20 1024h295l146 -637l143 637h297l-444 -1550h-273l138 526zM387 1128l119 140l115 -41l-152 -127z" />
<glyph unicode="&#xff;" horiz-adv-x="901" d="M20 1024h295l146 -637l143 637h297l-444 -1550h-273l138 526zM217 1262q0 41 28 68.5t69 27.5t68.5 -27.5t27.5 -68.5t-27.5 -69t-68.5 -28t-69 28t-28 69zM512 1262q0 41 28 68.5t69 27.5t68.5 -27.5t27.5 -68.5t-28 -69t-68 -28q-41 0 -69 28t-28 69z" />
<glyph unicode="&#x178;" horiz-adv-x="993" d="M20 1522l342 -965v-557h269v557l342 965h-293l-186 -684l-183 684h-291zM248 1751q0 41 27.5 68.5t68.5 27.5t68.5 -27.5t27.5 -68.5t-27.5 -68.5t-68.5 -27.5t-68.5 27.5t-27.5 68.5zM252 2228q0 41 27.5 68.5t68.5 27.5t68.5 -27.5t27.5 -68.5t-27.5 -68.5t-68.5 -27.5 t-68.5 27.5t-27.5 68.5zM543 1751q0 41 27.5 68.5t68.5 27.5t68.5 -27.5t27.5 -68.5t-27.5 -68.5t-68.5 -27.5t-68.5 27.5t-27.5 68.5zM547 2228q0 41 27.5 68.5t68.5 27.5t68.5 -27.5t27.5 -68.5t-27.5 -68.5t-68.5 -27.5t-68.5 27.5t-27.5 68.5z" />
<glyph unicode="&#x2000;" horiz-adv-x="1162" />
<glyph unicode="&#x2001;" horiz-adv-x="2324" />
<glyph unicode="&#x2002;" horiz-adv-x="1162" />
<glyph unicode="&#x2003;" horiz-adv-x="2324" />
<glyph unicode="&#x2004;" horiz-adv-x="774" />
<glyph unicode="&#x2005;" horiz-adv-x="581" />
<glyph unicode="&#x2006;" horiz-adv-x="387" />
<glyph unicode="&#x2007;" horiz-adv-x="387" />
<glyph unicode="&#x2008;" horiz-adv-x="290" />
<glyph unicode="&#x2009;" horiz-adv-x="464" />
<glyph unicode="&#x200a;" horiz-adv-x="129" />
<glyph unicode="&#x2010;" d="M113 541v311h798v-311h-798z" />
<glyph unicode="&#x2011;" d="M113 541v311h798v-311h-798z" />
<glyph unicode="&#x2012;" d="M113 541v311h798v-311h-798z" />
<glyph unicode="&#x2013;" horiz-adv-x="1382" d="M92 541v311h1198v-311h-1198z" />
<glyph unicode="&#x2014;" horiz-adv-x="1978" d="M92 541v311h1794v-311h-1794z" />
<glyph unicode="&#x201c;" horiz-adv-x="874" d="M31 1522h248l100 -422h-174zM414 1522h248l100 -422h-174z" />
<glyph unicode="&#x201d;" horiz-adv-x="874" d="M113 1100l100 422h248l-174 -422h-174zM496 1100l100 422h248l-174 -422h-174z" />
<glyph unicode="&#x2022;" horiz-adv-x="522" d="M82 711q0 76 50 128t128 52q76 0 128 -52t52 -128q0 -78 -52 -128.5t-128 -50.5q-78 0 -128 50.5t-50 128.5z" />
<glyph unicode="&#x2026;" horiz-adv-x="1546" d="M82 143q0 76 50 128.5t128 52.5q76 0 128 -52.5t52 -128.5q0 -78 -52 -128t-128 -50q-78 0 -128 50.5t-50 127.5zM594 143q0 76 50 128.5t128 52.5q76 0 128 -52.5t52 -128.5q0 -78 -52 -128t-128 -50q-78 0 -128 50.5t-50 127.5zM1106 143q0 76 50 128.5t128 52.5 q76 0 128 -52.5t52 -128.5q0 -78 -52 -128t-128 -50q-78 0 -128 50.5t-50 127.5z" />
<glyph unicode="&#x202f;" horiz-adv-x="464" />
<glyph unicode="&#x205f;" horiz-adv-x="581" />
<glyph unicode="&#xe000;" d="M0 0v1024h1024v-1024h-1024z" />
<glyph unicode="&#xfb01;" horiz-adv-x="1038" d="M82 737v293h129v139q0 80 35 151t93 124t133 84t157 31v-299q-55 0 -90 -38t-35 -94v-98h463v-1030h-293v737h-166v-737h-297v737h-129z" />
<glyph unicode="&#xfb02;" horiz-adv-x="1155" d="M72 733v291h131v137q0 82 33.5 152.5t91 124t133 84t157.5 30.5q96 0 174 -20.5t133.5 -72.5t86 -145t30.5 -237v-1079h-290v1135q0 51 -21.5 77.5t-46.5 36.5q-29 12 -66 10q-57 0 -90.5 -38.5t-33.5 -92.5v-102h133v-291h-129v-735h-295v735h-131z" />
</font>
</defs>
</svg>
