<?xml version="1.0" encoding="utf-8"?>
<!-- Generator: Adobe Illustrator 17.1.0, SVG Export Plug-In . SVG Version: 6.00 Build 0)  -->
<!DOCTYPE svg PUBLIC "-//W3C//DTD SVG 1.1//EN" "http://www.w3.org/Graphics/SVG/1.1/DTD/svg11.dtd">
<svg version="1.1" id="Layer_1" xmlns="http://www.w3.org/2000/svg" xmlns:xlink="http://www.w3.org/1999/xlink" x="0px" y="0px"
	 viewBox="0 0 483.9 303.9" enable-background="new 0 0 483.9 303.9" xml:space="preserve">
<polygon fill="#FFFFFF" points="174.1,0 255.2,0 255.2,25.1 227.8,25.1 227.8,134.5 201.4,134.5 201.4,25.1 174.1,25.1 "/>
<polygon fill="#FFFFFF" points="97.8,151 97.8,285.6 166.4,285.6 166.4,259.6 124.7,259.6 124.7,151 "/>
<path fill="#FFFFFF" d="M213.2,148c22.9,0,41.5,17.9,41.5,39.8v60.6c0,22-18.6,39.8-41.5,39.8s-41.5-17.9-41.5-39.8v-60.6
	C171.8,165.9,190.4,148,213.2,148z M198.4,248.4c0,7.8,6.6,14.1,14.8,14.1s14.8-6.3,14.8-14.1v-60.6c0-7.8-6.6-14.1-14.8-14.1
	c-8.2,0-14.8,6.3-14.8,14.1V248.4z"/>
<path fill="#FFFFFF" d="M166.6,0v98.1c0,21.6-17.6,39.1-39.3,39.1S88,119.7,88,98.1V0h25.3v97.1c0,7.6,6.3,13.8,14.1,13.8
	c7.8,0,14.1-6.2,14.1-13.8V0H166.6z"/>
<path fill="#FFFFFF" d="M483.9,273c0,8.6-7.2,15.5-16.2,15.5s-16.2-7-16.2-15.5s7.2-15.5,16.2-15.5S483.9,264.4,483.9,273z
	 M481,152.3h-26.5v95.9H481V152.3z"/>
<polygon fill="#FFFFFF" points="50.6,25.5 9.1,25.5 9.1,0 80,0 80,24.6 35.7,109 80.9,109 80.9,134.5 5.8,134.5 5.8,110.9 "/>
<path fill="#FFFFFF" d="M32.2,258l-4.8,27.6H0l29.8-134.7h30.7l29.8,134.7H62.9L58.1,258H32.2z M53.8,233.4l-8.6-49.5l-8.6,49.5
	H53.8z"/>
<g>
	<path fill="#FFFFFF" d="M356.6,179c-2.5,11.4-1.8,26.4,10.4,37c19.1,16.5,49.2,10.1,49.2,29.6c0,13.3-11.6,16-15.8,16
		c-3.6,0-18.5-0.6-18.5-21.3c0-1,0-3.1,0-3.1l-27.8,0c-0.3,7.7,0.2,12.5,0.2,12.5c1.9,20.8,20.6,39.1,44.5,39.1
		c11.9,0,23.5-3.8,31.8-11.6c3-2.8,16-16.9,13.4-37.4c-1.9-15.3-12.3-26.1-29-30.7c-16.4-4.5-30.5-6.8-32.9-18.1
		c-2.4-11.3,5.2-19.3,15-19.3c9.8,0,16.5,5.3,16.5,15.4v3.9h27.4V187c0-22.9-16.3-39.3-42.5-39.3C375.9,147.7,360.2,162.6,356.6,179
		z"/>
</g>
<path fill="#FFFFFF" d="M305.6,233.4l15,52.2h28l-19.2-59.4c5.9-4,18.5-15,18.5-36.2c0-17.4-8.7-30.7-26.1-36.2
	c-7.8-2.4-16.1-2.7-19.6-2.7c0,0-38.3,0-38.3,0l-0.1,134.6h26.5v-52.2L305.6,233.4z M290.3,208.7v-33.8h14.4
	c4.8,0,17.1,1.1,17.1,17.9c0,0,0,0,0,0.1c0,16.1-13.5,15.9-17.1,15.9L290.3,208.7L290.3,208.7z"/>
<text transform="matrix(1 0 0 1 3.7582 301.4617)" fill="#FFFFFF" font-family="'TimesNewRomanPS-ItalicMT'" font-size="6">536 6th Ave., Fl. 4, New York, NY 10011   +1 (212) 414-0410   ohrats@zutalorsinc.com</text>
<g>
	<path fill="#FFFFFF" d="M309.7,71.7V59.9h2.3v9.6h3.7v2.2H309.7z"/>
	<path fill="#FFFFFF" d="M316.9,71.7V59.8h2.3v11.9H316.9z"/>
	<path fill="#FFFFFF" d="M320.1,59.8h2.4l1.5,7.7l1.6-7.7h2.3l-2.7,11.9h-2.4L320.1,59.8z"/>
	<path fill="#FFFFFF" d="M328.7,71.7V59.8h6.6v2.2H331v2.6h4v2.2h-4v2.6h4.4v2.2H328.7z"/>
	<path fill="#FFFFFF" d="M340.1,71.7V59.8h6.6v2.3h-4.3v2.5h4V67h-4v4.8H340.1z"/>
	<path fill="#FFFFFF" d="M347.8,71.7V59.8h3.3c0.7,0,1.3,0.1,1.7,0.2c0.5,0.2,0.9,0.4,1.2,0.7s0.6,0.7,0.7,1.1
		c0.2,0.4,0.2,0.9,0.2,1.4c0,0.5-0.1,0.9-0.2,1.2s-0.2,0.7-0.4,0.9c-0.2,0.3-0.3,0.5-0.5,0.6s-0.3,0.3-0.5,0.4l1.7,5.3h-2.5
		l-1.2-4.6c-0.1,0-0.1,0-0.2,0c-0.1,0-0.1,0-0.2,0h-0.9v4.6H347.8z M350.1,65h1.1c0.2,0,0.4,0,0.6-0.1c0.2,0,0.4-0.1,0.5-0.2
		c0.1-0.1,0.3-0.3,0.3-0.5c0.1-0.2,0.1-0.5,0.1-0.8c0-0.1,0-0.2,0-0.4c0-0.2-0.1-0.3-0.2-0.5c-0.1-0.2-0.2-0.3-0.4-0.4
		c-0.2-0.1-0.5-0.2-0.8-0.2H351h-0.9V65z"/>
	<path fill="#FFFFFF" d="M355.9,68.5v-5.3c0-0.5,0.1-0.9,0.3-1.4c0.2-0.4,0.4-0.8,0.8-1.1c0.3-0.3,0.7-0.6,1.1-0.8
		c0.4-0.2,0.9-0.3,1.4-0.3c0.5,0,1,0.1,1.4,0.3c0.4,0.2,0.8,0.4,1.1,0.8s0.6,0.7,0.8,1.1c0.2,0.4,0.3,0.9,0.3,1.4v5.3
		c0,0.5-0.1,0.9-0.3,1.4c-0.2,0.4-0.4,0.8-0.8,1.1s-0.7,0.6-1.1,0.8c-0.4,0.2-0.9,0.3-1.4,0.3c-0.5,0-1-0.1-1.4-0.3
		c-0.4-0.2-0.8-0.4-1.1-0.8c-0.3-0.3-0.6-0.7-0.8-1.1C356,69.4,355.9,68.9,355.9,68.5z M358.1,68.4c0,0.3,0.1,0.6,0.4,0.9
		c0.2,0.2,0.6,0.4,0.9,0.4c0.4,0,0.7-0.1,0.9-0.4c0.2-0.2,0.4-0.5,0.4-0.9v-5.3c0-0.3-0.1-0.6-0.4-0.9s-0.6-0.4-0.9-0.4
		c-0.4,0-0.7,0.1-0.9,0.4s-0.4,0.5-0.4,0.9V68.4z"/>
	<path fill="#FFFFFF" d="M364.2,71.7V59.8h3.2l1.9,7.4l1.9-7.4h3.2v11.9h-2.3v-6.8l-1.8,6.8h0.3h-2.3l-1.9-6.8v6.8H364.2z"/>
	<path fill="#FFFFFF" d="M378.5,62.1v-2.3h7.1v2.3h-2.4v9.6h-2.3v-9.6H378.5z"/>
	<path fill="#FFFFFF" d="M386.5,71.7V59.8h2.3v4.9h3v-4.9h2.3v11.9h-2.3V67h-3v4.7H386.5z"/>
	<path fill="#FFFFFF" d="M395.5,71.7V59.8h6.6v2.2h-4.3v2.6h4v2.2h-4v2.6h4.4v2.2H395.5z"/>
	<path fill="#FFFFFF" d="M406.6,68.5v-5.4c0-0.5,0.1-0.9,0.3-1.4c0.2-0.4,0.4-0.8,0.8-1.1c0.3-0.3,0.7-0.6,1.1-0.8
		c0.4-0.2,0.9-0.3,1.4-0.3c0.5,0,1,0.1,1.4,0.3c0.4,0.2,0.8,0.4,1.1,0.8c0.3,0.3,0.6,0.7,0.8,1.1c0.2,0.4,0.3,0.9,0.3,1.4v0.3h-2.3
		V63c0-0.3-0.1-0.6-0.4-0.9c-0.3-0.2-0.6-0.4-0.9-0.4s-0.7,0.1-0.9,0.4c-0.3,0.2-0.4,0.5-0.4,0.9v5.4c0,0.2,0,0.3,0.1,0.5
		c0.1,0.2,0.2,0.3,0.3,0.4s0.3,0.2,0.4,0.3c0.2,0.1,0.3,0.1,0.5,0.1s0.4,0,0.5-0.1c0.2-0.1,0.3-0.2,0.4-0.3c0.1-0.1,0.2-0.2,0.3-0.4
		c0.1-0.2,0.1-0.3,0.1-0.5v-1.2h-1.4v-2h3.7v3.3c0,0.5-0.1,0.9-0.3,1.4c-0.2,0.4-0.4,0.8-0.8,1.1c-0.3,0.3-0.7,0.6-1.1,0.8
		c-0.4,0.2-0.9,0.3-1.4,0.3c-0.5,0-1-0.1-1.4-0.3c-0.4-0.2-0.8-0.4-1.1-0.8c-0.3-0.3-0.6-0.7-0.8-1.1
		C406.7,69.4,406.6,69,406.6,68.5z"/>
	<path fill="#FFFFFF" d="M414.6,71.7V59.8h2.4h1.2c0.5,0,1,0.1,1.4,0.3c0.4,0.2,0.8,0.4,1.1,0.8s0.5,0.7,0.7,1.1
		c0.2,0.4,0.2,0.9,0.2,1.4v4.8c0,0.5-0.1,1-0.2,1.4c-0.2,0.4-0.4,0.8-0.7,1.1s-0.7,0.6-1.1,0.8c-0.4,0.2-0.9,0.3-1.4,0.3H414.6z
		 M416.9,69.4h1.2c0.4,0,0.7-0.1,1-0.3c0.3-0.2,0.4-0.5,0.4-0.9v-4.7c0-0.1,0-0.3-0.1-0.4c-0.1-0.1-0.2-0.3-0.3-0.4
		s-0.3-0.2-0.4-0.3c-0.2-0.1-0.4-0.1-0.6-0.1h-1.2V69.4z"/>
	<path fill="#FFFFFF" d="M422.8,71.7V59.8h3.3c0.7,0,1.3,0.1,1.7,0.2c0.5,0.2,0.9,0.4,1.2,0.7s0.6,0.7,0.7,1.1
		c0.2,0.4,0.2,0.9,0.2,1.4c0,0.5-0.1,0.9-0.2,1.2s-0.2,0.7-0.4,0.9c-0.2,0.3-0.3,0.5-0.5,0.6s-0.3,0.3-0.5,0.4l1.7,5.3h-2.5
		l-1.2-4.6c-0.1,0-0.1,0-0.2,0c-0.1,0-0.1,0-0.2,0H425v4.6H422.8z M425,65h1.1c0.2,0,0.4,0,0.6-0.1c0.2,0,0.4-0.1,0.5-0.2
		c0.1-0.1,0.3-0.3,0.3-0.5c0.1-0.2,0.1-0.5,0.1-0.8c0-0.1,0-0.2,0-0.4c0-0.2-0.1-0.3-0.2-0.5c-0.1-0.2-0.2-0.3-0.4-0.4
		c-0.2-0.1-0.5-0.2-0.8-0.2h-0.3H425V65z"/>
	<path fill="#FFFFFF" d="M313.5,85.3v-1h2.3v1c0,0.4,0.1,0.6,0.4,0.9c0.2,0.2,0.5,0.3,0.9,0.3c0.4,0,0.7-0.1,0.9-0.3
		s0.4-0.5,0.4-0.9v-8.5h2.2v8.5c0,0.5-0.1,0.9-0.3,1.3c-0.2,0.4-0.4,0.8-0.7,1.1c-0.3,0.3-0.7,0.6-1.1,0.7c-0.4,0.2-0.9,0.3-1.4,0.3
		c-0.5,0-1-0.1-1.4-0.3c-0.4-0.2-0.8-0.4-1.1-0.7s-0.6-0.7-0.7-1.1C313.6,86.2,313.5,85.8,313.5,85.3z"/>
	<path fill="#FFFFFF" d="M321.9,85.6v-8.8h2.3v8.7c0,0.2,0,0.3,0.1,0.5c0.1,0.2,0.2,0.3,0.3,0.4s0.2,0.2,0.4,0.3s0.3,0.1,0.5,0.1
		s0.3,0,0.5-0.1c0.2-0.1,0.3-0.1,0.4-0.3s0.2-0.2,0.3-0.4c0.1-0.2,0.1-0.3,0.1-0.5v-8.7h2.3v8.8c0,0.5-0.1,0.9-0.3,1.3
		c-0.2,0.4-0.4,0.8-0.7,1.1c-0.3,0.3-0.7,0.6-1.1,0.7c-0.4,0.2-0.9,0.3-1.3,0.3c-0.5,0-0.9-0.1-1.3-0.3c-0.4-0.2-0.8-0.4-1.1-0.7
		c-0.3-0.3-0.6-0.7-0.8-1.1C322,86.5,321.9,86.1,321.9,85.6z"/>
	<path fill="#FFFFFF" d="M330.3,88.7V76.8h2.7l2.8,6.5v-6.5h2.3v11.9h-2.3l-3.2-7.1v7.1H330.3z"/>
	<path fill="#FFFFFF" d="M339.4,88.7V76.8h6.6v2.2h-4.3v2.6h4v2.2h-4v2.6h4.4v2.2H339.4z"/>
	<path fill="#FFFFFF" d="M350.8,80.7v-2.3l2.5-1.5h2.3v11.9h-2.4v-9.3L350.8,80.7z"/>
	<path fill="#FFFFFF" d="M360.2,84.5v-2.4h9.4v2.4H360.2z"/>
	<path fill="#FFFFFF" d="M374,80.3v-0.1c0-0.5,0.1-1,0.3-1.4c0.2-0.4,0.4-0.8,0.7-1.1c0.3-0.3,0.7-0.6,1.1-0.8
		c0.4-0.2,0.8-0.3,1.3-0.3c0.5,0,1,0.1,1.5,0.3c0.4,0.2,0.8,0.4,1.1,0.7c0.3,0.3,0.5,0.7,0.6,1.1c0.1,0.4,0.2,0.9,0.1,1.4l0,0.2
		c0,0.1,0,0.2-0.1,0.4c0,0.2-0.1,0.4-0.2,0.6c-0.1,0.2-0.2,0.5-0.4,0.8l-2.8,4.3h3.5v2.4h-6.5v-2.1l3.9-5.8c0.2-0.2,0.2-0.4,0.2-0.5
		s0-0.2,0-0.2c0-0.3-0.1-0.6-0.2-0.8c-0.2-0.2-0.4-0.3-0.7-0.3c-0.2,0-0.5,0.1-0.6,0.4c-0.2,0.2-0.3,0.5-0.3,0.8v0.1H374z"/>
	<path fill="#FFFFFF" d="M381.7,85.8v-0.4h2.5v0.4c0.1,0.6,0.5,0.9,1.1,0.9c0.1,0,0.3,0,0.4-0.1c0.1,0,0.2-0.1,0.3-0.2
		c0.1-0.1,0.2-0.2,0.2-0.3c0.1-0.1,0.1-0.2,0.1-0.4v-1.4c0-0.1,0-0.2,0-0.3c0-0.1-0.1-0.2-0.1-0.3c-0.1-0.1-0.1-0.2-0.2-0.2
		c-0.1-0.1-0.2-0.1-0.3-0.1h-0.4h-0.4v-2c0.1,0,0.2,0,0.3,0c0.1,0,0.2,0,0.2,0c0.1,0,0.1,0,0.2,0c0.2-0.1,0.3-0.1,0.3-0.3
		s0.1-0.3,0.1-0.4v-0.9c0-0.2-0.1-0.4-0.2-0.5c-0.1-0.2-0.3-0.3-0.6-0.3c-0.2,0-0.4,0.1-0.6,0.2c-0.1,0.1-0.2,0.3-0.3,0.6v0.6h-2.4
		v-0.6c0-0.5,0.1-0.9,0.2-1.3c0.1-0.4,0.3-0.6,0.5-0.9s0.5-0.4,0.7-0.6c0.3-0.1,0.5-0.2,0.8-0.3c0.2-0.1,0.5-0.1,0.7-0.1
		c0.2,0,0.3,0,0.4,0c0.4,0,0.8,0.1,1.2,0.2s0.7,0.4,1,0.6s0.5,0.6,0.7,1s0.3,0.8,0.3,1.2v0.7c0,0.4-0.1,0.7-0.2,1
		c-0.1,0.3-0.3,0.6-0.5,0.9c0.6,0.6,0.9,1.4,1,2.3v0.9c0,0.5-0.1,1-0.3,1.4s-0.4,0.8-0.7,1.2c-0.3,0.3-0.7,0.6-1.1,0.8
		c-0.4,0.2-0.9,0.3-1.4,0.3c-0.5,0-1-0.1-1.4-0.2c-0.4-0.1-0.8-0.4-1.1-0.6c-0.3-0.3-0.6-0.6-0.8-1
		C381.8,86.7,381.7,86.3,381.7,85.8z"/>
	<path fill="#FFFFFF" d="M389.2,90l0.8-3.3h2l-1.4,3.3H389.2z"/>
	<path fill="#FFFFFF" d="M396.3,80.3v-0.1c0-0.5,0.1-1,0.3-1.4c0.2-0.4,0.4-0.8,0.7-1.1c0.3-0.3,0.7-0.6,1.1-0.8
		c0.4-0.2,0.8-0.3,1.3-0.3c0.5,0,1,0.1,1.5,0.3c0.4,0.2,0.8,0.4,1.1,0.7c0.3,0.3,0.5,0.7,0.6,1.1c0.1,0.4,0.2,0.9,0.1,1.4l0,0.2
		c0,0.1,0,0.2-0.1,0.4c0,0.2-0.1,0.4-0.2,0.6c-0.1,0.2-0.2,0.5-0.4,0.8l-2.8,4.3h3.5v2.4h-6.5v-2.1l3.9-5.8c0.2-0.2,0.2-0.4,0.2-0.5
		s0-0.2,0-0.2c0-0.3-0.1-0.6-0.2-0.8c-0.2-0.2-0.4-0.3-0.7-0.3c-0.2,0-0.5,0.1-0.6,0.4c-0.2,0.2-0.3,0.5-0.3,0.8v0.1H396.3z"/>
	<path fill="#FFFFFF" d="M404.2,85.4v-5.1c0-0.5,0.1-1,0.3-1.4c0.2-0.4,0.4-0.8,0.7-1.1s0.7-0.6,1.1-0.8c0.4-0.2,0.8-0.3,1.3-0.3
		c0.5,0,0.9,0.1,1.3,0.3c0.4,0.2,0.8,0.4,1.1,0.8s0.5,0.7,0.7,1.1c0.2,0.4,0.3,0.9,0.3,1.4v5.1c0,0.5-0.1,1-0.3,1.4
		c-0.2,0.4-0.4,0.8-0.7,1.1s-0.7,0.6-1.1,0.8c-0.4,0.2-0.8,0.3-1.3,0.3c-0.5,0-0.9-0.1-1.3-0.3c-0.4-0.2-0.8-0.4-1.1-0.8
		s-0.5-0.7-0.7-1.1C404.3,86.4,404.2,85.9,404.2,85.4z M406.6,85.7c0,0.3,0.1,0.5,0.3,0.7c0.2,0.2,0.4,0.3,0.7,0.3
		c0.2,0,0.4-0.1,0.6-0.3c0.2-0.2,0.3-0.4,0.3-0.7v-5.6c0-0.1,0-0.3-0.1-0.4c-0.1-0.1-0.1-0.2-0.2-0.3s-0.2-0.2-0.3-0.2
		c-0.1-0.1-0.2-0.1-0.3-0.1c-0.2,0-0.5,0.1-0.6,0.3c-0.2,0.2-0.3,0.4-0.3,0.7V85.7z"/>
	<path fill="#FFFFFF" d="M411.8,80.7v-2.3l2.5-1.5h2.3v11.9h-2.4v-9.3L411.8,80.7z"/>
	<path fill="#FFFFFF" d="M417.9,86.1V84l2.3-7.1h2.4l-2.1,6.9h1.4v-2.2h2.4v2.2h0.5v2.4h-0.5v2.6h-2.4v-2.6H417.9z"/>
</g>
</svg>
