<?xml version="1.0" encoding="utf-8"?>
<!-- Generator: Adobe Illustrator 15.1.0, SVG Export Plug-In . SVG Version: 6.00 Build 0)  -->
<!DOCTYPE svg PUBLIC "-//W3C//DTD SVG 1.1//EN" "http://www.w3.org/Graphics/SVG/1.1/DTD/svg11.dtd">
<svg version="1.1" id="Layer_1" xmlns="http://www.w3.org/2000/svg" xmlns:xlink="http://www.w3.org/1999/xlink" x="0px" y="0px"
	 width="483.876px" height="288.668px" viewBox="0 0 483.876 288.668" enable-background="new 0 0 483.876 288.668"
	 xml:space="preserve">
<polygon fill-rule="evenodd" clip-rule="evenodd" fill="#FFFFFF" points="174.052,0.001 255.173,0.001 255.173,25.065 
	227.813,25.065 227.813,134.539 201.411,134.539 201.411,25.065 174.069,25.065 "/>
<polygon fill-rule="evenodd" clip-rule="evenodd" fill="#FFFFFF" points="97.783,151.031 97.783,285.569 166.428,285.569 
	166.428,259.609 124.685,259.609 124.685,151.031 "/>
<path fill-rule="evenodd" clip-rule="evenodd" fill="#FFFFFF" d="M213.25,148.012c22.859,0,41.456,17.87,41.456,39.836v60.564
	c0,21.966-18.597,39.836-41.456,39.836s-41.456-17.87-41.456-39.836v-60.564C171.794,165.882,190.392,148.012,213.25,148.012z
	 M198.432,248.413c0,7.784,6.634,14.095,14.818,14.095s14.818-6.311,14.818-14.095v-60.564c0-7.784-6.635-14.095-14.818-14.095
	c-8.185,0-14.818,6.311-14.818,14.095V248.413z"/>
<path fill-rule="evenodd" clip-rule="evenodd" fill="#FFFFFF" d="M166.592,0v98.107c0,21.557-17.636,39.094-39.314,39.094
	c-21.678,0-39.314-17.537-39.314-39.094V0h25.261v97.108c0,7.639,6.292,13.832,14.053,13.832c7.762,0,14.053-6.193,14.053-13.832V0
	H166.592z"/>
<path fill-rule="evenodd" clip-rule="evenodd" fill="#FFFFFF" d="M483.876,272.983c0,8.578-7.236,15.531-16.163,15.531
	s-16.164-6.953-16.164-15.531s7.237-15.531,16.164-15.531S483.876,264.405,483.876,272.983z M480.962,152.349h-26.499v95.882h26.499
	V152.349z"/>
<polygon fill-rule="evenodd" clip-rule="evenodd" fill="#FFFFFF" points="50.587,25.496 9.136,25.496 9.136,0.001 79.959,0.001 
	79.975,24.565 35.704,109.044 80.876,109.044 80.876,134.539 5.758,134.539 5.758,110.865 "/>
<path fill-rule="evenodd" clip-rule="evenodd" fill="#FFFFFF" d="M32.231,258.009l-4.814,27.56H0l29.824-134.681h30.692
	l29.825,134.681H62.923l-4.811-27.56H32.231z M53.809,233.351l-8.632-49.452l-8.639,49.452H53.809z"/>
<g>
	<path fill-rule="evenodd" clip-rule="evenodd" fill="#FFFFFF" d="M356.562,178.975c-2.522,11.369-1.823,26.424,10.415,36.998
		c19.062,16.471,49.166,10.126,49.166,29.574c0,13.324-11.599,15.978-15.805,15.978c-3.566,0-18.506-0.618-18.506-21.323
		c0-0.995,0-3.124,0-3.124l-27.757,0.005c-0.314,7.667,0.197,12.515,0.197,12.515c1.949,20.83,20.647,39.071,44.548,39.071
		c11.861,0,23.479-3.789,31.819-11.562c3.009-2.805,15.95-16.91,13.442-37.354c-1.873-15.278-12.281-26.147-28.989-30.721
		c-16.361-4.478-30.456-6.784-32.876-18.137c-2.405-11.289,5.187-19.31,14.959-19.31c9.809,0,16.506,5.304,16.506,15.366v3.907
		h27.374v-3.907c0-22.896-16.341-39.302-42.525-39.302C375.875,147.651,360.186,162.65,356.562,178.975z"/>
</g>
<path fill-rule="evenodd" clip-rule="evenodd" fill="#FFFFFF" d="M305.586,233.351l15.022,52.202h28.02l-19.205-59.418
	c5.907-3.979,18.507-14.959,18.507-36.245c0-17.367-8.676-30.74-26.138-36.204c-7.781-2.435-16.146-2.72-19.649-2.72
	c-0.023,0-38.251,0.008-38.251,0.008l-0.116,134.604h26.48v-52.23L305.586,233.351z M290.256,208.66v-33.814h14.44
	c4.798,0,17.08,1.118,17.08,17.878c0,0.021,0,0.041,0,0.062c0,16.127-13.465,15.875-17.08,15.875H290.256z"/>
</svg>
