<?xml version="1.0" encoding="utf-8"?>
<!-- Generator: Adobe Illustrator 17.1.0, SVG Export Plug-In . SVG Version: 6.00 Build 0)  -->
<!DOCTYPE svg PUBLIC "-//W3C//DTD SVG 1.1//EN" "http://www.w3.org/Graphics/SVG/1.1/DTD/svg11.dtd">
<svg version="1.1" id="Layer_1" xmlns="http://www.w3.org/2000/svg" xmlns:xlink="http://www.w3.org/1999/xlink" x="0px" y="0px"
	 viewBox="0 0 483.9 303.2" enable-background="new 0 0 483.9 303.2" xml:space="preserve">
<polygon fill="#FFFFFF" points="174.1,0 255.2,0 255.2,25.1 227.8,25.1 227.8,134.5 201.4,134.5 201.4,25.1 174.1,25.1 "/>
<polygon fill="#FFFFFF" points="97.8,151 97.8,285.6 166.4,285.6 166.4,259.6 124.7,259.6 124.7,151 "/>
<path fill="#FFFFFF" d="M213.2,148c22.9,0,41.5,17.9,41.5,39.8v60.6c0,22-18.6,39.8-41.5,39.8s-41.5-17.9-41.5-39.8v-60.6
	C171.8,165.9,190.4,148,213.2,148z M198.4,248.4c0,7.8,6.6,14.1,14.8,14.1s14.8-6.3,14.8-14.1v-60.6c0-7.8-6.6-14.1-14.8-14.1
	c-8.2,0-14.8,6.3-14.8,14.1V248.4z"/>
<path fill="#FFFFFF" d="M166.6,0v98.1c0,21.6-17.6,39.1-39.3,39.1S88,119.7,88,98.1V0h25.3v97.1c0,7.6,6.3,13.8,14.1,13.8
	c7.8,0,14.1-6.2,14.1-13.8V0H166.6z"/>
<path fill="#FFFFFF" d="M483.9,273c0,8.6-7.2,15.5-16.2,15.5s-16.2-7-16.2-15.5s7.2-15.5,16.2-15.5S483.9,264.4,483.9,273z
	 M481,152.3h-26.5v95.9H481V152.3z"/>
<polygon fill="#FFFFFF" points="50.6,25.5 9.1,25.5 9.1,0 80,0 80,24.6 35.7,109 80.9,109 80.9,134.5 5.8,134.5 5.8,110.9 "/>
<path fill="#FFFFFF" d="M32.2,258l-4.8,27.6H0l29.8-134.7h30.7l29.8,134.7H62.9L58.1,258H32.2z M53.8,233.4l-8.6-49.5l-8.6,49.5
	H53.8z"/>
<g>
	<path fill="#FFFFFF" d="M356.6,179c-2.5,11.4-1.8,26.4,10.4,37c19.1,16.5,49.2,10.1,49.2,29.6c0,13.3-11.6,16-15.8,16
		c-3.6,0-18.5-0.6-18.5-21.3c0-1,0-3.1,0-3.1l-27.8,0c-0.3,7.7,0.2,12.5,0.2,12.5c1.9,20.8,20.6,39.1,44.5,39.1
		c11.9,0,23.5-3.8,31.8-11.6c3-2.8,16-16.9,13.4-37.4c-1.9-15.3-12.3-26.1-29-30.7c-16.4-4.5-30.5-6.8-32.9-18.1
		c-2.4-11.3,5.2-19.3,15-19.3c9.8,0,16.5,5.3,16.5,15.4v3.9h27.4V187c0-22.9-16.3-39.3-42.5-39.3C375.9,147.7,360.2,162.6,356.6,179
		z"/>
</g>
<path fill="#FFFFFF" d="M305.6,233.4l15,52.2h28l-19.2-59.4c5.9-4,18.5-15,18.5-36.2c0-17.4-8.7-30.7-26.1-36.2
	c-7.8-2.4-16.1-2.7-19.6-2.7c0,0-38.3,0-38.3,0l-0.1,134.6h26.5v-52.2L305.6,233.4z M290.3,208.7v-33.8h14.4
	c4.8,0,17.1,1.1,17.1,17.9c0,0,0,0,0,0.1c0,16.1-13.5,15.9-17.1,15.9L290.3,208.7L290.3,208.7z"/>
<g>
	<path fill="#FFFFFF" d="M5.8,296.2h1.8l-0.2,0.6H5.8l-0.3,0.7c0.4,0.1,0.8,0.2,1,0.4c0.4,0.3,0.5,0.7,0.5,1.3c0,0.4-0.1,0.7-0.2,1
		s-0.3,0.5-0.5,0.7c-0.2,0.2-0.4,0.4-0.6,0.5c-0.3,0.2-0.6,0.2-0.9,0.2c-0.3,0-0.5-0.1-0.6-0.2c-0.1-0.1-0.2-0.2-0.2-0.3
		c0-0.1,0-0.2,0.1-0.2s0.2-0.1,0.2-0.1c0.1,0,0.3,0.1,0.5,0.2c0.1,0.1,0.2,0.1,0.3,0.2c0.1,0,0.1,0,0.2,0c0.3,0,0.6-0.1,0.8-0.4
		s0.4-0.7,0.4-1.1c0-0.3-0.1-0.6-0.2-0.8c-0.1-0.2-0.3-0.4-0.5-0.5s-0.5-0.2-0.8-0.2L5.8,296.2z"/>
	<path fill="#FFFFFF" d="M9,298.6v-0.1c0.6-0.1,1.1-0.3,1.4-0.6c0.2-0.2,0.3-0.4,0.3-0.7c0-0.2-0.1-0.4-0.2-0.5
		c-0.1-0.1-0.3-0.2-0.5-0.2c-0.3,0-0.6,0.2-0.8,0.5l-0.1,0c0.1-0.3,0.3-0.5,0.5-0.7c0.2-0.2,0.4-0.2,0.7-0.2c0.3,0,0.6,0.1,0.7,0.3
		s0.3,0.4,0.3,0.7c0,0.2-0.1,0.5-0.3,0.7c-0.2,0.2-0.5,0.4-0.9,0.6c0.3,0.1,0.5,0.3,0.6,0.5c0.1,0.2,0.2,0.5,0.2,0.8
		c0,0.3-0.1,0.7-0.3,1c-0.2,0.3-0.4,0.6-0.8,0.8c-0.3,0.2-0.7,0.3-1,0.3c-0.3,0-0.6-0.1-0.7-0.2c-0.1-0.1-0.2-0.2-0.2-0.3
		c0-0.1,0-0.2,0.1-0.2c0.1-0.1,0.1-0.1,0.2-0.1c0.1,0,0.1,0,0.2,0c0,0,0.1,0.1,0.3,0.2c0.2,0.1,0.3,0.2,0.4,0.2c0.1,0,0.2,0,0.3,0
		c0.2,0,0.4-0.1,0.6-0.4c0.2-0.3,0.2-0.6,0.2-0.9c0-0.2-0.1-0.5-0.2-0.7s-0.3-0.4-0.5-0.5S9.2,298.6,9,298.6z"/>
	<path fill="#FFFFFF" d="M16,296.1v0.2c-0.4,0.1-0.9,0.3-1.3,0.7c-0.4,0.3-0.8,0.8-1.1,1.3c0.3-0.1,0.5-0.2,0.7-0.2
		c0.3,0,0.6,0.1,0.8,0.4c0.2,0.2,0.3,0.6,0.3,1c0,0.6-0.2,1.2-0.6,1.6c-0.4,0.4-0.8,0.7-1.3,0.7c-0.4,0-0.7-0.2-1-0.5
		c-0.2-0.3-0.3-0.7-0.3-1.1c0-0.5,0.1-1.1,0.4-1.6s0.6-1,1-1.3c0.4-0.4,0.9-0.6,1.3-0.8C15.2,296.2,15.6,296.1,16,296.1z
		 M13.4,298.5c-0.4,0.8-0.6,1.5-0.6,2c0,0.3,0.1,0.5,0.2,0.7s0.3,0.2,0.5,0.2c0.3,0,0.6-0.2,0.8-0.7c0.3-0.4,0.4-0.9,0.4-1.5
		c0-0.3-0.1-0.5-0.2-0.7c-0.2-0.2-0.3-0.2-0.5-0.2c-0.1,0-0.2,0-0.3,0C13.6,298.3,13.5,298.4,13.4,298.5z"/>
	<path fill="#FFFFFF" d="M22,296.1v0.2c-0.4,0.1-0.9,0.3-1.3,0.7c-0.4,0.3-0.8,0.8-1.1,1.3c0.3-0.1,0.5-0.2,0.7-0.2
		c0.3,0,0.6,0.1,0.8,0.4c0.2,0.2,0.3,0.6,0.3,1c0,0.6-0.2,1.2-0.6,1.6c-0.4,0.4-0.8,0.7-1.3,0.7c-0.4,0-0.7-0.2-1-0.5
		c-0.2-0.3-0.3-0.7-0.3-1.1c0-0.5,0.1-1.1,0.4-1.6s0.6-1,1-1.3c0.4-0.4,0.9-0.6,1.3-0.8C21.2,296.2,21.6,296.1,22,296.1z
		 M19.4,298.5c-0.4,0.8-0.6,1.5-0.6,2c0,0.3,0.1,0.5,0.2,0.7s0.3,0.2,0.5,0.2c0.3,0,0.6-0.2,0.8-0.7c0.3-0.4,0.4-0.9,0.4-1.5
		c0-0.3-0.1-0.5-0.2-0.7c-0.2-0.2-0.3-0.2-0.5-0.2c-0.1,0-0.2,0-0.3,0C19.6,298.3,19.5,298.4,19.4,298.5z"/>
	<path fill="#FFFFFF" d="M23.8,297l-0.3,1.1h0.6l-0.1,0.2h-0.6l-0.7,2.3c-0.1,0.2-0.1,0.4-0.1,0.5c0,0,0,0.1,0,0.1s0,0,0.1,0
		c0.1,0,0.2,0,0.3-0.1c0.1-0.1,0.2-0.2,0.4-0.5l0.1,0.1c-0.2,0.3-0.5,0.6-0.7,0.7c-0.1,0.1-0.3,0.1-0.4,0.1c-0.1,0-0.2,0-0.3-0.1
		c-0.1-0.1-0.1-0.2-0.1-0.3c0-0.1,0-0.4,0.1-0.6l0.7-2.3h-0.6l0-0.2c0.3-0.1,0.5-0.2,0.7-0.3c0.2-0.2,0.4-0.4,0.6-0.8H23.8z"/>
	<path fill="#FFFFFF" d="M26.3,295.9l-1.1,3.8c0.5-0.7,0.8-1.2,1.1-1.4s0.5-0.4,0.8-0.4c0.1,0,0.2,0,0.3,0.1s0.1,0.2,0.1,0.3
		c0,0.2,0,0.4-0.1,0.6l-0.5,1.6c-0.1,0.2-0.1,0.3-0.1,0.3c0,0,0,0.1,0,0.1s0,0,0.1,0c0,0,0.1,0,0.1-0.1c0.1-0.1,0.3-0.3,0.4-0.5
		l0.1,0.1c-0.1,0.1-0.2,0.3-0.4,0.5c-0.2,0.2-0.3,0.3-0.4,0.3c-0.1,0.1-0.2,0.1-0.3,0.1c-0.1,0-0.2,0-0.2-0.1
		c-0.1-0.1-0.1-0.1-0.1-0.2c0-0.1,0-0.3,0.1-0.6l0.4-1.6c0.1-0.2,0.1-0.3,0.1-0.5c0-0.1,0-0.1,0-0.1s-0.1,0-0.1,0
		c-0.1,0-0.2,0-0.3,0.1c-0.2,0.1-0.4,0.3-0.6,0.6c-0.1,0.1-0.3,0.4-0.6,1c-0.1,0.2-0.2,0.4-0.3,0.6l-0.2,0.8h-0.6l1.3-4.5l0.1-0.5
		c0-0.1,0-0.1-0.1-0.2c-0.1-0.1-0.1-0.1-0.2-0.1c0,0-0.1,0-0.2,0l-0.1,0v-0.2L26.3,295.9z"/>
	<path fill="#FFFFFF" d="M34,296l-0.4,4.4c0,0.2,0,0.3,0,0.4c0,0.1,0,0.2,0.1,0.2c0,0.1,0.1,0.1,0.2,0.2c0.1,0,0.2,0.1,0.4,0.1
		l0,0.1h-2.1l0-0.1h0.1c0.2,0,0.3,0,0.4-0.1c0.1,0,0.1-0.1,0.2-0.2c0-0.1,0.1-0.3,0.1-0.6l0.1-0.7h-1.5l-0.5,0.7
		c-0.1,0.2-0.2,0.3-0.2,0.4c0,0.1,0,0.1,0,0.2c0,0.1,0,0.2,0.1,0.2c0.1,0.1,0.2,0.1,0.3,0.1l0,0.1h-1.6l0-0.1c0.2,0,0.4-0.1,0.5-0.2
		s0.4-0.4,0.7-0.8l3.2-4.3H34z M33.2,297.3l-1.5,2.1H33L33.2,297.3z"/>
	<path fill="#FFFFFF" d="M34.9,298.2l1.1-0.2c0.1,0.2,0.1,0.4,0.2,0.6c0.1,0.3,0.1,0.6,0.2,1c0,0.2,0,0.6,0.1,1.3
		c0.3-0.4,0.5-0.6,0.6-0.7c0.3-0.5,0.5-0.7,0.6-0.8c0.1-0.1,0.1-0.3,0.2-0.4c0-0.1,0-0.2,0-0.2c0-0.1-0.1-0.1-0.2-0.2
		c-0.1-0.1-0.2-0.2-0.2-0.3c0-0.1,0-0.2,0.1-0.2c0.1-0.1,0.1-0.1,0.2-0.1c0.1,0,0.2,0,0.3,0.1s0.1,0.2,0.1,0.3s0,0.3-0.1,0.4
		c-0.1,0.2-0.2,0.4-0.4,0.7s-0.5,0.7-0.9,1.1c-0.1,0.1-0.3,0.4-0.9,0.9h-0.1c-0.1-1.6-0.2-2.7-0.4-3.1c-0.1-0.1-0.2-0.2-0.3-0.2
		c-0.1,0-0.2,0-0.3,0L34.9,298.2z"/>
	<path fill="#FFFFFF" d="M39.2,300c0,0.1,0,0.2,0,0.3c0,0.2,0.1,0.4,0.2,0.6c0.2,0.2,0.4,0.2,0.6,0.2c0.2,0,0.4,0,0.5-0.1
		c0.2-0.1,0.4-0.2,0.8-0.5l0.1,0.1c-0.6,0.6-1.2,0.9-1.8,0.9c-0.4,0-0.7-0.1-0.9-0.4c-0.2-0.2-0.3-0.5-0.3-0.8
		c0-0.4,0.1-0.8,0.4-1.2s0.5-0.7,0.9-0.9c0.4-0.2,0.7-0.3,1.1-0.3c0.3,0,0.5,0.1,0.6,0.2c0.1,0.1,0.2,0.2,0.2,0.4
		c0,0.2-0.1,0.4-0.3,0.6c-0.2,0.3-0.6,0.5-1,0.6C40.2,299.8,39.8,299.9,39.2,300z M39.3,299.8c0.4,0,0.7-0.1,0.9-0.2
		c0.3-0.1,0.6-0.3,0.7-0.5s0.2-0.4,0.2-0.6c0-0.1,0-0.2-0.1-0.3c-0.1-0.1-0.2-0.1-0.3-0.1c-0.3,0-0.5,0.1-0.8,0.4
		C39.6,298.8,39.4,299.2,39.3,299.8z"/>
	<path fill="#FFFFFF" d="M42.5,300.8c0.1,0,0.2,0,0.3,0.1c0.1,0.1,0.1,0.2,0.1,0.3s0,0.2-0.1,0.3c-0.1,0.1-0.2,0.1-0.3,0.1
		s-0.2,0-0.3-0.1c-0.1-0.1-0.1-0.2-0.1-0.3s0-0.2,0.1-0.3C42.3,300.8,42.4,300.8,42.5,300.8z"/>
	<path fill="#FFFFFF" d="M43.7,302.3c0.2-0.1,0.4-0.2,0.5-0.3c0.1-0.1,0.1-0.2,0.1-0.3c0,0,0-0.1,0-0.1c0,0,0-0.1-0.1-0.1
		s-0.1-0.1-0.1-0.1c0,0,0-0.1,0-0.2c0-0.1,0-0.2,0.1-0.3c0.1-0.1,0.2-0.1,0.3-0.1c0.1,0,0.2,0,0.3,0.1s0.1,0.2,0.1,0.3
		c0,0.2-0.1,0.5-0.3,0.7c-0.2,0.2-0.4,0.4-0.8,0.6L43.7,302.3z"/>
	<path fill="#FFFFFF" d="M50.4,296.4l-0.6,2.1h0.7c0.3,0,0.5,0,0.7-0.1c0.2-0.1,0.3-0.3,0.5-0.6h0.1l-0.6,1.9h-0.2
		c0-0.2,0.1-0.3,0.1-0.4c0-0.2-0.1-0.3-0.2-0.4c-0.1-0.1-0.3-0.1-0.6-0.1h-0.7l-0.5,1.6c-0.1,0.3-0.1,0.5-0.1,0.6
		c0,0.1,0,0.2,0.1,0.2c0.1,0.1,0.2,0.1,0.5,0.1l0,0.1h-2.1l0.1-0.1c0.2,0,0.3,0,0.4-0.1c0.1,0,0.2-0.1,0.2-0.2
		c0.1-0.1,0.2-0.3,0.2-0.7l0.9-3.2c0.1-0.3,0.1-0.5,0.1-0.6c0-0.1,0-0.1-0.1-0.2c0,0-0.1-0.1-0.2-0.1s-0.2,0-0.4,0l0-0.1h4.1
		l-0.4,1.3h-0.1c0-0.2,0-0.3,0-0.4c0-0.2,0-0.3-0.1-0.4c-0.1-0.1-0.2-0.2-0.4-0.2c-0.1,0-0.3,0-0.7,0H50.4z"/>
	<path fill="#FFFFFF" d="M55.1,295.9l-1.3,4.6c-0.1,0.2-0.1,0.4-0.1,0.4c0,0,0,0.1,0,0.1c0,0,0.1,0,0.1,0c0,0,0.1,0,0.2-0.1
		c0.1-0.1,0.3-0.3,0.4-0.5l0.1,0.1c-0.2,0.3-0.5,0.6-0.7,0.7c-0.2,0.1-0.3,0.1-0.4,0.1c-0.1,0-0.2,0-0.2-0.1
		c-0.1-0.1-0.1-0.1-0.1-0.2c0-0.1,0-0.3,0.1-0.6l1.1-3.7c0.1-0.3,0.1-0.5,0.1-0.5c0-0.1,0-0.1-0.1-0.2c0,0-0.1-0.1-0.2-0.1
		c-0.1,0-0.2,0-0.3,0v-0.1L55.1,295.9z"/>
	<path fill="#FFFFFF" d="M55.6,300.8c0.1,0,0.2,0,0.3,0.1C56,301,56,301,56,301.2s0,0.2-0.1,0.3c-0.1,0.1-0.2,0.1-0.3,0.1
		s-0.2,0-0.3-0.1c-0.1-0.1-0.1-0.2-0.1-0.3s0-0.2,0.1-0.3C55.4,300.8,55.5,300.8,55.6,300.8z"/>
	<path fill="#FFFFFF" d="M62.8,296.2l-1,3.5h0.6l-0.1,0.5h-0.6l-0.4,1.4h-0.6l0.4-1.4h-1.9l0.2-0.5l3.2-3.4H62.8z M62,297.2
		l-2.3,2.5h1.6L62,297.2z"/>
	<path fill="#FFFFFF" d="M62.9,302.3c0.2-0.1,0.4-0.2,0.5-0.3c0.1-0.1,0.1-0.2,0.1-0.3c0,0,0-0.1,0-0.1c0,0,0-0.1-0.1-0.1
		s-0.1-0.1-0.1-0.1c0,0,0-0.1,0-0.2c0-0.1,0-0.2,0.1-0.3c0.1-0.1,0.2-0.1,0.3-0.1c0.1,0,0.2,0,0.3,0.1s0.1,0.2,0.1,0.3
		c0,0.2-0.1,0.5-0.3,0.7c-0.2,0.2-0.4,0.4-0.8,0.6L62.9,302.3z"/>
	<path fill="#FFFFFF" d="M69.2,296.2l1.6,4.2l0.9-3.1c0.1-0.3,0.1-0.5,0.1-0.6c0-0.1,0-0.2-0.1-0.2s-0.2-0.1-0.4-0.1
		c0,0-0.1,0-0.1,0l0-0.1H73l0,0.1c-0.2,0-0.3,0-0.4,0.1c-0.1,0.1-0.2,0.1-0.3,0.2c-0.1,0.1-0.2,0.3-0.3,0.6l-1.2,4.4h-0.1l-1.8-4.5
		l-0.9,3.3c-0.1,0.2-0.1,0.4-0.1,0.6c0,0.1,0,0.2,0.1,0.2s0.2,0.1,0.5,0.1l0,0.1h-1.7l0.1-0.1c0.2,0,0.3,0,0.4-0.1
		c0.1,0,0.2-0.1,0.2-0.2c0.1-0.1,0.2-0.3,0.3-0.7l1.1-3.7c-0.1-0.2-0.2-0.3-0.3-0.3s-0.3-0.1-0.5-0.1l0-0.1H69.2z"/>
	<path fill="#FFFFFF" d="M73.2,300c0,0.1,0,0.2,0,0.3c0,0.2,0.1,0.4,0.2,0.6c0.2,0.2,0.4,0.2,0.6,0.2c0.2,0,0.4,0,0.5-0.1
		c0.2-0.1,0.4-0.2,0.8-0.5l0.1,0.1c-0.6,0.6-1.2,0.9-1.8,0.9c-0.4,0-0.7-0.1-0.9-0.4c-0.2-0.2-0.3-0.5-0.3-0.8
		c0-0.4,0.1-0.8,0.4-1.2s0.5-0.7,0.9-0.9c0.4-0.2,0.7-0.3,1.1-0.3c0.3,0,0.5,0.1,0.6,0.2c0.1,0.1,0.2,0.2,0.2,0.4
		c0,0.2-0.1,0.4-0.3,0.6c-0.2,0.3-0.6,0.5-1,0.6C74.2,299.8,73.8,299.9,73.2,300z M73.3,299.8c0.4,0,0.7-0.1,0.9-0.2
		c0.3-0.1,0.6-0.3,0.7-0.5s0.2-0.4,0.2-0.6c0-0.1,0-0.2-0.1-0.3c-0.1-0.1-0.2-0.1-0.3-0.1c-0.3,0-0.5,0.1-0.8,0.4
		C73.6,298.8,73.4,299.2,73.3,299.8z"/>
	<path fill="#FFFFFF" d="M79.2,297.9l0.3,2.9c0.5-0.5,0.8-1,1.1-1.5c0.2-0.3,0.2-0.5,0.2-0.6c0-0.1,0-0.1,0-0.2c0,0-0.1-0.1-0.1-0.1
		c-0.1,0-0.1-0.1-0.2-0.1c0,0,0-0.1,0-0.2c0-0.1,0-0.1,0.1-0.2c0.1-0.1,0.1-0.1,0.2-0.1c0.1,0,0.2,0,0.3,0.1
		c0.1,0.1,0.1,0.2,0.1,0.3c0,0.1,0,0.3-0.1,0.4c-0.1,0.2-0.2,0.5-0.5,0.9c-0.3,0.4-0.6,0.8-0.9,1.2s-0.5,0.6-0.7,0.8h-0.1l-0.3-2.7
		l-1.6,2.7h-0.2c0-1.1-0.1-2-0.2-2.6c0-0.3-0.1-0.4-0.2-0.5c-0.1-0.1-0.2-0.1-0.3-0.1c-0.1,0-0.2,0-0.3,0v-0.1l1.1-0.3
		c0.2,0.4,0.3,1.1,0.3,2c0,0.3,0,0.6,0,0.6l1.6-2.6H79.2z"/>
	<path fill="#FFFFFF" d="M86,298.6l1-1.4c0.3-0.4,0.4-0.6,0.4-0.7c0-0.1,0-0.1-0.1-0.1c-0.1,0-0.2-0.1-0.5-0.1l0-0.1h1.7l0,0.1
		c-0.2,0-0.3,0-0.3,0.1c-0.1,0-0.2,0.1-0.3,0.2c-0.1,0.1-0.3,0.3-0.5,0.6L86,299l-0.4,1.3c-0.1,0.3-0.1,0.6-0.1,0.7
		c0,0.1,0,0.1,0,0.2c0,0,0.1,0.1,0.2,0.1c0.1,0,0.2,0,0.5,0.1l0,0.1h-2.2l0-0.1c0.2,0,0.4,0,0.4-0.1c0.1,0,0.2-0.1,0.3-0.2
		c0.1-0.1,0.2-0.3,0.3-0.6l0.5-1.5l-0.6-1.8c-0.1-0.3-0.2-0.5-0.3-0.6s-0.2-0.1-0.4-0.1l0-0.1h2l0,0.1c-0.2,0-0.4,0-0.4,0
		c-0.1,0-0.1,0.1-0.1,0.1s-0.1,0.1-0.1,0.2c0,0.1,0,0.3,0.1,0.5L86,298.6z"/>
	<path fill="#FFFFFF" d="M90.6,299.1c0,0.4-0.1,0.8-0.3,1.2s-0.5,0.7-0.9,0.9c-0.4,0.2-0.7,0.3-1.1,0.3c-0.4,0-0.6-0.1-0.9-0.3
		c-0.2-0.2-0.3-0.5-0.3-0.9c0-0.4,0.1-0.8,0.3-1.2c0.2-0.4,0.5-0.7,0.9-0.9c0.4-0.2,0.7-0.3,1.1-0.3s0.6,0.1,0.8,0.3
		S90.6,298.8,90.6,299.1z M89.9,298.9c0-0.2-0.1-0.4-0.2-0.6s-0.3-0.2-0.5-0.2c-0.4,0-0.7,0.3-1.1,0.8c-0.3,0.5-0.5,1.1-0.5,1.6
		c0,0.2,0.1,0.4,0.2,0.6c0.1,0.1,0.3,0.2,0.5,0.2c0.4,0,0.7-0.3,1-0.8C89.8,300,89.9,299.4,89.9,298.9z"/>
	<path fill="#FFFFFF" d="M91.3,298.1l1.3-0.2l-0.6,1.9c0.5-0.8,0.9-1.3,1.2-1.6c0.2-0.2,0.4-0.3,0.5-0.3c0.1,0,0.2,0,0.2,0.1
		s0.1,0.1,0.1,0.2c0,0.2,0,0.3-0.1,0.5c-0.1,0.1-0.2,0.2-0.3,0.2c-0.1,0-0.1,0-0.2-0.1s-0.1-0.1-0.1-0.2c0,0,0-0.1,0-0.1
		c0,0,0,0-0.1,0c0,0-0.1,0-0.1,0c-0.1,0-0.2,0.1-0.3,0.3c-0.2,0.3-0.5,0.6-0.7,1c-0.1,0.2-0.2,0.4-0.3,0.6c-0.1,0.3-0.2,0.5-0.2,0.5
		l-0.1,0.5H91l0.7-2.4c0.1-0.3,0.1-0.5,0.1-0.6c0,0,0-0.1-0.1-0.1c-0.1,0-0.1-0.1-0.2-0.1c-0.1,0-0.2,0-0.3,0L91.3,298.1z"/>
	<path fill="#FFFFFF" d="M96.3,295.9l-1.1,3.8l0.4-0.4c0.5-0.4,0.8-0.7,0.9-0.9c0-0.1,0.1-0.1,0.1-0.1c0,0,0,0,0-0.1
		c0,0,0,0-0.1-0.1c0,0-0.1,0-0.2,0h-0.1l0-0.1h1.7l0,0.1c-0.2,0-0.4,0-0.5,0.1s-0.3,0.1-0.4,0.2c-0.3,0.2-0.4,0.3-0.5,0.4l-0.3,0.3
		c0.1,0.2,0.1,0.4,0.2,0.8c0.1,0.6,0.2,0.9,0.3,1c0,0.1,0.1,0.2,0.2,0.2c0,0,0.1,0,0.2-0.1c0.1-0.1,0.3-0.3,0.4-0.5l0.1,0.1
		c-0.3,0.4-0.5,0.6-0.7,0.7s-0.3,0.2-0.4,0.2c-0.1,0-0.2,0-0.3-0.1c-0.1-0.2-0.3-0.8-0.5-1.8l-0.5,0.5l-0.4,1.4h-0.6l1.3-4.5
		l0.1-0.4c0-0.1,0-0.1,0-0.2c0-0.1,0-0.1-0.1-0.2c0,0-0.1-0.1-0.2-0.1c-0.1,0-0.2,0-0.3,0v-0.1L96.3,295.9z"/>
	<path fill="#FFFFFF" d="M97.5,302.3c0.2-0.1,0.4-0.2,0.5-0.3c0.1-0.1,0.1-0.2,0.1-0.3c0,0,0-0.1,0-0.1c0,0,0-0.1-0.1-0.1
		s-0.1-0.1-0.1-0.1c0,0,0-0.1,0-0.2c0-0.1,0-0.2,0.1-0.3c0.1-0.1,0.2-0.1,0.3-0.1c0.1,0,0.2,0,0.3,0.1s0.1,0.2,0.1,0.3
		c0,0.2-0.1,0.5-0.3,0.7c-0.2,0.2-0.4,0.4-0.8,0.6L97.5,302.3z"/>
	<path fill="#FFFFFF" d="M103.8,296.2l1.6,4.2l0.9-3.1c0.1-0.3,0.1-0.5,0.1-0.6c0-0.1,0-0.2-0.1-0.2s-0.2-0.1-0.4-0.1
		c0,0-0.1,0-0.1,0l0-0.1h1.7l0,0.1c-0.2,0-0.3,0-0.4,0.1c-0.1,0.1-0.2,0.1-0.3,0.2c-0.1,0.1-0.2,0.3-0.3,0.6l-1.2,4.4h-0.1l-1.8-4.5
		l-0.9,3.3c-0.1,0.2-0.1,0.4-0.1,0.6c0,0.1,0,0.2,0.1,0.2s0.2,0.1,0.5,0.1l0,0.1h-1.7l0.1-0.1c0.2,0,0.3,0,0.4-0.1
		c0.1,0,0.2-0.1,0.2-0.2c0.1-0.1,0.2-0.3,0.3-0.7l1.1-3.7c-0.1-0.2-0.2-0.3-0.3-0.3s-0.3-0.1-0.5-0.1l0-0.1H103.8z"/>
	<path fill="#FFFFFF" d="M109.7,298.6l1-1.4c0.3-0.4,0.4-0.6,0.4-0.7c0-0.1,0-0.1-0.1-0.1c-0.1,0-0.2-0.1-0.5-0.1l0-0.1h1.7l0,0.1
		c-0.2,0-0.3,0-0.3,0.1c-0.1,0-0.2,0.1-0.3,0.2c-0.1,0.1-0.3,0.3-0.5,0.6l-1.3,1.8l-0.4,1.3c-0.1,0.3-0.1,0.6-0.1,0.7
		c0,0.1,0,0.1,0,0.2c0,0,0.1,0.1,0.2,0.1c0.1,0,0.2,0,0.5,0.1l0,0.1h-2.2l0-0.1c0.2,0,0.4,0,0.4-0.1c0.1,0,0.2-0.1,0.3-0.2
		c0.1-0.1,0.2-0.3,0.3-0.6l0.5-1.5l-0.6-1.8c-0.1-0.3-0.2-0.5-0.3-0.6s-0.2-0.1-0.4-0.1l0-0.1h2l0,0.1c-0.2,0-0.4,0-0.4,0
		c-0.1,0-0.1,0.1-0.1,0.1s-0.1,0.1-0.1,0.2c0,0.1,0,0.3,0.1,0.5L109.7,298.6z"/>
	<path fill="#FFFFFF" d="M116.7,296.1l-1.3,4.4c-0.1,0.3-0.1,0.4-0.1,0.6c0,0.1,0,0.2,0.1,0.2s0.2,0.1,0.5,0.1l0,0.1h-2l0.1-0.1
		c0.2,0,0.4,0,0.4-0.1c0.1,0,0.2-0.1,0.2-0.2c0.1-0.1,0.2-0.3,0.3-0.6l0.9-3.1c0.1-0.2,0.1-0.3,0.1-0.3c0-0.1,0-0.1,0-0.2
		c0-0.1,0-0.2-0.1-0.2c0-0.1-0.1-0.1-0.2-0.1c-0.1,0-0.2,0-0.3,0l-0.1-0.1l1.3-0.4H116.7z"/>
	<path fill="#FFFFFF" d="M120.1,296.1c0.3,0,0.6,0.1,0.8,0.4c0.2,0.3,0.3,0.7,0.3,1.3c0,0.5-0.1,1-0.3,1.6c-0.2,0.5-0.4,1-0.7,1.4
		c-0.2,0.3-0.5,0.5-0.8,0.7c-0.2,0.1-0.3,0.1-0.5,0.1c-0.3,0-0.6-0.1-0.8-0.4c-0.2-0.3-0.3-0.7-0.3-1.3c0-0.6,0.1-1.2,0.3-1.8
		c0.3-0.7,0.6-1.2,1-1.6C119.4,296.2,119.7,296.1,120.1,296.1z M120.1,296.3c-0.2,0-0.3,0.1-0.5,0.2c-0.2,0.1-0.3,0.4-0.5,0.7
		s-0.3,0.9-0.5,1.4c-0.2,0.8-0.3,1.4-0.3,2c0,0.3,0.1,0.5,0.2,0.6c0.1,0.1,0.3,0.2,0.4,0.2c0.2,0,0.3-0.1,0.4-0.2
		c0.3-0.3,0.6-0.8,0.8-1.4c0.3-1.1,0.5-2,0.5-2.7c0-0.3-0.1-0.5-0.2-0.6S120.2,296.3,120.1,296.3z"/>
	<path fill="#FFFFFF" d="M124.1,296.1c0.3,0,0.6,0.1,0.8,0.4c0.2,0.3,0.3,0.7,0.3,1.3c0,0.5-0.1,1-0.3,1.6c-0.2,0.5-0.4,1-0.7,1.4
		c-0.2,0.3-0.5,0.5-0.8,0.7c-0.2,0.1-0.3,0.1-0.5,0.1c-0.3,0-0.6-0.1-0.8-0.4c-0.2-0.3-0.3-0.7-0.3-1.3c0-0.6,0.1-1.2,0.3-1.8
		c0.3-0.7,0.6-1.2,1-1.6C123.4,296.2,123.7,296.1,124.1,296.1z M124.1,296.3c-0.2,0-0.3,0.1-0.5,0.2c-0.2,0.1-0.3,0.4-0.5,0.7
		s-0.3,0.9-0.5,1.4c-0.2,0.8-0.3,1.4-0.3,2c0,0.3,0.1,0.5,0.2,0.6c0.1,0.1,0.3,0.2,0.4,0.2c0.2,0,0.3-0.1,0.4-0.2
		c0.3-0.3,0.6-0.8,0.8-1.4c0.3-1.1,0.5-2,0.5-2.7c0-0.3-0.1-0.5-0.2-0.6S124.2,296.3,124.1,296.3z"/>
	<path fill="#FFFFFF" d="M128.7,296.1l-1.3,4.4c-0.1,0.3-0.1,0.4-0.1,0.6c0,0.1,0,0.2,0.1,0.2s0.2,0.1,0.5,0.1l0,0.1h-2l0.1-0.1
		c0.2,0,0.4,0,0.4-0.1c0.1,0,0.2-0.1,0.2-0.2c0.1-0.1,0.2-0.3,0.3-0.6l0.9-3.1c0.1-0.2,0.1-0.3,0.1-0.3c0-0.1,0-0.1,0-0.2
		c0-0.1,0-0.2-0.1-0.2c0-0.1-0.1-0.1-0.2-0.1c-0.1,0-0.2,0-0.3,0l-0.1-0.1l1.3-0.4H128.7z"/>
	<path fill="#FFFFFF" d="M132.1,296.1l-1.3,4.4c-0.1,0.3-0.1,0.4-0.1,0.6c0,0.1,0,0.2,0.1,0.2s0.2,0.1,0.5,0.1l0,0.1h-2l0.1-0.1
		c0.2,0,0.4,0,0.4-0.1c0.1,0,0.2-0.1,0.2-0.2c0.1-0.1,0.2-0.3,0.3-0.6l0.9-3.1c0.1-0.2,0.1-0.3,0.1-0.3c0-0.1,0-0.1,0-0.2
		c0-0.1,0-0.2-0.1-0.2c0-0.1-0.1-0.1-0.2-0.1c-0.1,0-0.2,0-0.3,0l-0.1-0.1l1.3-0.4H132.1z"/>
	<path fill="#FFFFFF" d="M141.4,300.9V299h-1.9v-0.3h1.9v-1.9h0.3v1.9h1.9v0.3h-1.9v1.9H141.4z"/>
	<path fill="#FFFFFF" d="M147.5,296.1l-1.3,4.4c-0.1,0.3-0.1,0.4-0.1,0.6c0,0.1,0,0.2,0.1,0.2s0.2,0.1,0.5,0.1l0,0.1h-2l0.1-0.1
		c0.2,0,0.4,0,0.4-0.1c0.1,0,0.2-0.1,0.2-0.2c0.1-0.1,0.2-0.3,0.3-0.6l0.9-3.1c0.1-0.2,0.1-0.3,0.1-0.3c0-0.1,0-0.1,0-0.2
		c0-0.1,0-0.2-0.1-0.2c0-0.1-0.1-0.1-0.2-0.1c-0.1,0-0.2,0-0.3,0l-0.1-0.1l1.3-0.4H147.5z"/>
	<path fill="#FFFFFF" d="M151.6,303.1l-0.1,0.1c-0.3-0.6-0.5-1.1-0.7-1.6c-0.1-0.4-0.2-0.7-0.2-1.1c0-0.8,0.2-1.6,0.6-2.3
		c0.5-0.8,1.2-1.6,2.3-2.4l0.1,0.1c-0.5,0.4-0.9,0.8-1.2,1.2c-0.4,0.6-0.7,1.2-0.9,2s-0.4,1.5-0.4,2.1
		C151.2,301.9,151.3,302.4,151.6,303.1z"/>
	<path fill="#FFFFFF" d="M155.6,301.5h-2.6v-0.1c1.3-1.2,2.2-2.1,2.7-2.8c0.2-0.3,0.3-0.6,0.3-1c0-0.3-0.1-0.5-0.2-0.7
		c-0.2-0.2-0.4-0.3-0.6-0.3c-0.4,0-0.7,0.2-0.9,0.5l-0.1-0.1c0.1-0.3,0.3-0.6,0.6-0.8c0.3-0.2,0.5-0.3,0.8-0.3
		c0.3,0,0.6,0.1,0.8,0.3s0.3,0.5,0.3,0.8c0,0.2,0,0.4-0.1,0.6c-0.1,0.3-0.4,0.6-0.7,1c-0.5,0.6-1.2,1.2-2,2h1.3c0.2,0,0.4,0,0.5-0.1
		c0.1-0.1,0.2-0.2,0.3-0.4h0.2L155.6,301.5z"/>
	<path fill="#FFFFFF" d="M160.1,296.1l-1.3,4.4c-0.1,0.3-0.1,0.4-0.1,0.6c0,0.1,0,0.2,0.1,0.2s0.2,0.1,0.5,0.1l0,0.1h-2l0.1-0.1
		c0.2,0,0.4,0,0.4-0.1c0.1,0,0.2-0.1,0.2-0.2c0.1-0.1,0.2-0.3,0.3-0.6l0.9-3.1c0.1-0.2,0.1-0.3,0.1-0.3c0-0.1,0-0.1,0-0.2
		c0-0.1,0-0.2-0.1-0.2c0-0.1-0.1-0.1-0.2-0.1c-0.1,0-0.2,0-0.3,0l-0.1-0.1l1.3-0.4H160.1z"/>
	<path fill="#FFFFFF" d="M163.6,301.5h-2.6v-0.1c1.3-1.2,2.2-2.1,2.7-2.8c0.2-0.3,0.3-0.6,0.3-1c0-0.3-0.1-0.5-0.2-0.7
		c-0.2-0.2-0.4-0.3-0.6-0.3c-0.4,0-0.7,0.2-0.9,0.5l-0.1-0.1c0.1-0.3,0.3-0.6,0.6-0.8c0.3-0.2,0.5-0.3,0.8-0.3
		c0.3,0,0.6,0.1,0.8,0.3s0.3,0.5,0.3,0.8c0,0.2,0,0.4-0.1,0.6c-0.1,0.3-0.4,0.6-0.7,1c-0.5,0.6-1.2,1.2-2,2h1.3c0.2,0,0.4,0,0.5-0.1
		c0.1-0.1,0.2-0.2,0.3-0.4h0.2L163.6,301.5z"/>
	<path fill="#FFFFFF" d="M166,296l0.1-0.1c0.3,0.6,0.5,1.1,0.7,1.6c0.1,0.4,0.2,0.7,0.2,1.1c0,0.8-0.2,1.6-0.6,2.3
		c-0.5,0.8-1.3,1.6-2.3,2.4l-0.1-0.1c0.5-0.4,0.9-0.8,1.2-1.2c0.4-0.6,0.7-1.2,0.9-2c0.2-0.8,0.4-1.5,0.4-2.1
		C166.4,297.2,166.2,296.6,166,296z"/>
	<path fill="#FFFFFF" d="M173.3,296.2l-1,3.5h0.6l-0.1,0.5h-0.6l-0.4,1.4h-0.6l0.4-1.4h-1.9l0.2-0.5l3.2-3.4H173.3z M172.5,297.2
		l-2.3,2.5h1.6L172.5,297.2z"/>
	<path fill="#FFFFFF" d="M176.8,296.1l-1.3,4.4c-0.1,0.3-0.1,0.4-0.1,0.6c0,0.1,0,0.2,0.1,0.2s0.2,0.1,0.5,0.1l0,0.1h-2l0.1-0.1
		c0.2,0,0.4,0,0.4-0.1c0.1,0,0.2-0.1,0.2-0.2c0.1-0.1,0.2-0.3,0.3-0.6l0.9-3.1c0.1-0.2,0.1-0.3,0.1-0.3c0-0.1,0-0.1,0-0.2
		c0-0.1,0-0.2-0.1-0.2c0-0.1-0.1-0.1-0.2-0.1c-0.1,0-0.2,0-0.3,0l-0.1-0.1l1.3-0.4H176.8z"/>
	<path fill="#FFFFFF" d="M181.3,296.2l-1,3.5h0.6l-0.1,0.5h-0.6l-0.4,1.4h-0.6l0.4-1.4h-1.9l0.2-0.5l3.2-3.4H181.3z M180.5,297.2
		l-2.3,2.5h1.6L180.5,297.2z"/>
	<path fill="#FFFFFF" d="M183.8,299.5l-0.2,0.5h-2l0.2-0.5H183.8z"/>
	<path fill="#FFFFFF" d="M186.9,296.1c0.3,0,0.6,0.1,0.8,0.4c0.2,0.3,0.3,0.7,0.3,1.3c0,0.5-0.1,1-0.3,1.6c-0.2,0.5-0.4,1-0.7,1.4
		c-0.2,0.3-0.5,0.5-0.8,0.7c-0.2,0.1-0.3,0.1-0.5,0.1c-0.3,0-0.6-0.1-0.8-0.4c-0.2-0.3-0.3-0.7-0.3-1.3c0-0.6,0.1-1.2,0.3-1.8
		c0.3-0.7,0.6-1.2,1-1.6C186.2,296.2,186.5,296.1,186.9,296.1z M186.9,296.3c-0.2,0-0.3,0.1-0.5,0.2c-0.2,0.1-0.3,0.4-0.5,0.7
		s-0.3,0.9-0.5,1.4c-0.2,0.8-0.3,1.4-0.3,2c0,0.3,0.1,0.5,0.2,0.6c0.1,0.1,0.3,0.2,0.4,0.2c0.2,0,0.3-0.1,0.4-0.2
		c0.3-0.3,0.6-0.8,0.8-1.4c0.3-1.1,0.5-2,0.5-2.7c0-0.3-0.1-0.5-0.2-0.6S187,296.3,186.9,296.3z"/>
	<path fill="#FFFFFF" d="M192,296.2l-1,3.5h0.6l-0.1,0.5h-0.6l-0.4,1.4h-0.6l0.4-1.4h-1.9l0.2-0.5l3.2-3.4H192z M191.1,297.2
		l-2.3,2.5h1.6L191.1,297.2z"/>
	<path fill="#FFFFFF" d="M195.5,296.1l-1.3,4.4c-0.1,0.3-0.1,0.4-0.1,0.6c0,0.1,0,0.2,0.1,0.2s0.2,0.1,0.5,0.1l0,0.1h-2l0.1-0.1
		c0.2,0,0.4,0,0.4-0.1c0.1,0,0.2-0.1,0.2-0.2c0.1-0.1,0.2-0.3,0.3-0.6l0.9-3.1c0.1-0.2,0.1-0.3,0.1-0.3c0-0.1,0-0.1,0-0.2
		c0-0.1,0-0.2-0.1-0.2c0-0.1-0.1-0.1-0.2-0.1c-0.1,0-0.2,0-0.3,0l-0.1-0.1l1.3-0.4H195.5z"/>
	<path fill="#FFFFFF" d="M198.9,296.1c0.3,0,0.6,0.1,0.8,0.4c0.2,0.3,0.3,0.7,0.3,1.3c0,0.5-0.1,1-0.3,1.6c-0.2,0.5-0.4,1-0.7,1.4
		c-0.2,0.3-0.5,0.5-0.8,0.7c-0.2,0.1-0.3,0.1-0.5,0.1c-0.3,0-0.6-0.1-0.8-0.4c-0.2-0.3-0.3-0.7-0.3-1.3c0-0.6,0.1-1.2,0.3-1.8
		c0.3-0.7,0.6-1.2,1-1.6C198.2,296.2,198.5,296.1,198.9,296.1z M198.9,296.3c-0.2,0-0.3,0.1-0.5,0.2c-0.2,0.1-0.3,0.4-0.5,0.7
		s-0.3,0.9-0.5,1.4c-0.2,0.8-0.3,1.4-0.3,2c0,0.3,0.1,0.5,0.2,0.6c0.1,0.1,0.3,0.2,0.4,0.2c0.2,0,0.3-0.1,0.4-0.2
		c0.3-0.3,0.6-0.8,0.8-1.4c0.3-1.1,0.5-2,0.5-2.7c0-0.3-0.1-0.5-0.2-0.6S199,296.3,198.9,296.3z"/>
	<path fill="#FFFFFF" d="M209.8,299.1c0,0.4-0.1,0.8-0.3,1.2s-0.5,0.7-0.9,0.9c-0.4,0.2-0.7,0.3-1.1,0.3c-0.4,0-0.6-0.1-0.9-0.3
		c-0.2-0.2-0.3-0.5-0.3-0.9c0-0.4,0.1-0.8,0.3-1.2c0.2-0.4,0.5-0.7,0.9-0.9c0.4-0.2,0.7-0.3,1.1-0.3s0.6,0.1,0.8,0.3
		S209.8,298.8,209.8,299.1z M209.2,298.9c0-0.2-0.1-0.4-0.2-0.6s-0.3-0.2-0.5-0.2c-0.4,0-0.7,0.3-1.1,0.8c-0.3,0.5-0.5,1.1-0.5,1.6
		c0,0.2,0.1,0.4,0.2,0.6c0.1,0.1,0.3,0.2,0.5,0.2c0.4,0,0.7-0.3,1-0.8C209,300,209.2,299.4,209.2,298.9z"/>
	<path fill="#FFFFFF" d="M212.5,295.9l-1.1,3.8c0.5-0.7,0.8-1.2,1.1-1.4s0.5-0.4,0.8-0.4c0.1,0,0.2,0,0.3,0.1s0.1,0.2,0.1,0.3
		c0,0.2,0,0.4-0.1,0.6l-0.5,1.6c-0.1,0.2-0.1,0.3-0.1,0.3c0,0,0,0.1,0,0.1s0,0,0.1,0c0,0,0.1,0,0.1-0.1c0.1-0.1,0.3-0.3,0.4-0.5
		l0.1,0.1c-0.1,0.1-0.2,0.3-0.4,0.5c-0.2,0.2-0.3,0.3-0.4,0.3c-0.1,0.1-0.2,0.1-0.3,0.1c-0.1,0-0.2,0-0.2-0.1
		c-0.1-0.1-0.1-0.1-0.1-0.2c0-0.1,0-0.3,0.1-0.6l0.4-1.6c0.1-0.2,0.1-0.3,0.1-0.5c0-0.1,0-0.1,0-0.1s-0.1,0-0.1,0
		c-0.1,0-0.2,0-0.3,0.1c-0.2,0.1-0.4,0.3-0.6,0.6c-0.1,0.1-0.3,0.4-0.6,1c-0.1,0.2-0.2,0.4-0.3,0.6l-0.2,0.8h-0.6l1.3-4.5l0.1-0.5
		c0-0.1,0-0.1-0.1-0.2c-0.1-0.1-0.1-0.1-0.2-0.1c0,0-0.1,0-0.2,0l-0.1,0v-0.2L212.5,295.9z"/>
	<path fill="#FFFFFF" d="M214.5,298.1l1.3-0.2l-0.6,1.9c0.5-0.8,0.9-1.3,1.2-1.6c0.2-0.2,0.4-0.3,0.5-0.3c0.1,0,0.2,0,0.2,0.1
		s0.1,0.1,0.1,0.2c0,0.2,0,0.3-0.1,0.5c-0.1,0.1-0.2,0.2-0.3,0.2c-0.1,0-0.1,0-0.2-0.1s-0.1-0.1-0.1-0.2c0,0,0-0.1,0-0.1
		c0,0,0,0-0.1,0c0,0-0.1,0-0.1,0c-0.1,0-0.2,0.1-0.3,0.3c-0.2,0.3-0.5,0.6-0.7,1c-0.1,0.2-0.2,0.4-0.3,0.6c-0.1,0.3-0.2,0.5-0.2,0.5
		l-0.1,0.5h-0.6l0.7-2.4c0.1-0.3,0.1-0.5,0.1-0.6c0,0,0-0.1-0.1-0.1c-0.1,0-0.1-0.1-0.2-0.1c-0.1,0-0.2,0-0.3,0L214.5,298.1z"/>
	<path fill="#FFFFFF" d="M221,297.9l-0.8,2.6l-0.1,0.4c0,0,0,0.1,0,0.1c0,0,0,0.1,0,0.1c0,0,0,0,0.1,0c0,0,0.1,0,0.1-0.1
		c0.1-0.1,0.2-0.2,0.4-0.5l0.1,0.1c-0.2,0.3-0.4,0.5-0.6,0.6c-0.2,0.1-0.4,0.2-0.5,0.2c-0.1,0-0.2,0-0.3-0.1
		c-0.1-0.1-0.1-0.1-0.1-0.2c0-0.1,0-0.3,0.1-0.5l0.1-0.3c-0.3,0.4-0.7,0.8-0.9,0.9c-0.2,0.1-0.4,0.2-0.6,0.2c-0.2,0-0.4-0.1-0.5-0.2
		c-0.1-0.2-0.2-0.4-0.2-0.7c0-0.4,0.1-0.9,0.4-1.3c0.2-0.5,0.6-0.8,0.9-1.1c0.3-0.2,0.6-0.3,0.8-0.3c0.2,0,0.3,0,0.4,0.1
		c0.1,0.1,0.2,0.2,0.2,0.4l0.1-0.4L221,297.9z M219.6,298.1c-0.2,0-0.3,0.1-0.5,0.2c-0.3,0.2-0.5,0.5-0.7,1
		c-0.2,0.4-0.3,0.8-0.3,1.2c0,0.2,0,0.3,0.1,0.4c0.1,0.1,0.2,0.2,0.3,0.2c0.3,0,0.6-0.2,0.9-0.6c0.4-0.6,0.7-1.1,0.7-1.7
		c0-0.2,0-0.4-0.1-0.5C219.9,298.2,219.7,298.1,219.6,298.1z"/>
	<path fill="#FFFFFF" d="M223.3,297L223,298h0.6l-0.1,0.2h-0.6l-0.7,2.3c-0.1,0.2-0.1,0.4-0.1,0.5c0,0,0,0.1,0,0.1s0,0,0.1,0
		c0.1,0,0.2,0,0.3-0.1c0.1-0.1,0.2-0.2,0.4-0.5l0.1,0.1c-0.2,0.3-0.5,0.6-0.7,0.7c-0.1,0.1-0.3,0.1-0.4,0.1c-0.1,0-0.2,0-0.3-0.1
		c-0.1-0.1-0.1-0.2-0.1-0.3c0-0.1,0-0.4,0.1-0.6l0.7-2.3h-0.6l0-0.2c0.3-0.1,0.5-0.2,0.7-0.3c0.2-0.2,0.4-0.4,0.6-0.8H223.3z"/>
	<path fill="#FFFFFF" d="M226.4,297.9l-0.2,1.2H226c0-0.3-0.1-0.6-0.2-0.8c-0.1-0.2-0.3-0.2-0.5-0.2c-0.2,0-0.3,0-0.4,0.1
		c-0.1,0.1-0.1,0.2-0.1,0.3c0,0.1,0,0.2,0.1,0.2s0.1,0.2,0.2,0.3c0.3,0.4,0.6,0.6,0.7,0.8s0.1,0.4,0.1,0.5c0,0.3-0.1,0.5-0.3,0.7
		c-0.2,0.2-0.5,0.3-0.9,0.3c-0.2,0-0.4,0-0.6-0.1c-0.1,0-0.2,0-0.2,0c-0.1,0-0.2,0.1-0.3,0.2h-0.1l0.2-1.3h0.1
		c0,0.4,0.1,0.7,0.2,0.8s0.4,0.2,0.6,0.2c0.2,0,0.4-0.1,0.5-0.2c0.1-0.1,0.2-0.2,0.2-0.4c0-0.1,0-0.2-0.1-0.3
		c-0.1-0.2-0.2-0.4-0.5-0.6c-0.2-0.3-0.4-0.5-0.4-0.6c-0.1-0.1-0.1-0.3-0.1-0.4c0-0.3,0.1-0.5,0.3-0.6c0.2-0.2,0.4-0.3,0.7-0.3
		c0.1,0,0.2,0,0.2,0c0,0,0.1,0,0.3,0.1s0.2,0.1,0.3,0.1c0.1,0,0.2-0.1,0.3-0.2H226.4z"/>
	<path fill="#FFFFFF" d="M232.1,297.7l-0.5,1.6c-0.2,0.6-0.3,1-0.3,1.1s-0.1,0.3-0.1,0.4c0,0.1,0,0.2,0.1,0.2
		c0.1,0.1,0.1,0.1,0.2,0.1c0.2,0,0.4-0.1,0.7-0.3c0.3-0.2,0.5-0.5,0.7-0.9c0.2-0.4,0.3-0.9,0.3-1.3c0-0.4-0.1-0.9-0.3-1.2
		c-0.2-0.4-0.5-0.7-0.9-0.9c-0.4-0.2-0.8-0.3-1.3-0.3c-0.6,0-1.2,0.2-1.7,0.5c-0.5,0.3-0.9,0.8-1.2,1.4c-0.3,0.6-0.5,1.2-0.5,1.9
		c0,0.6,0.1,1.1,0.4,1.6c0.3,0.5,0.6,0.9,1.1,1.1c0.5,0.3,1,0.4,1.5,0.4c0.7,0,1.3-0.2,1.9-0.6s1-0.9,1.3-1.6h0.2
		c-0.2,0.7-0.7,1.3-1.3,1.7c-0.6,0.4-1.3,0.7-2.1,0.7c-0.6,0-1.2-0.1-1.7-0.4s-0.9-0.7-1.2-1.2c-0.3-0.5-0.4-1.1-0.4-1.8
		c0-0.7,0.2-1.3,0.5-1.9c0.3-0.6,0.8-1.1,1.4-1.4c0.6-0.3,1.2-0.5,1.9-0.5c0.5,0,1,0.1,1.5,0.3s0.8,0.5,1,1c0.2,0.4,0.3,0.9,0.3,1.4
		c0,0.5-0.1,0.9-0.3,1.4c-0.2,0.5-0.5,0.8-0.8,1c-0.3,0.2-0.7,0.3-1,0.3c-0.2,0-0.3,0-0.4-0.1s-0.2-0.2-0.2-0.4c0-0.1,0-0.3,0.1-0.6
		c-0.4,0.5-0.7,0.8-0.9,0.9c-0.2,0.1-0.4,0.2-0.6,0.2c-0.2,0-0.3-0.1-0.5-0.2c-0.1-0.2-0.2-0.4-0.2-0.7c0-0.4,0.1-0.8,0.4-1.3
		s0.6-0.9,1-1.1c0.3-0.2,0.6-0.3,0.8-0.3c0.2,0,0.3,0,0.4,0.1s0.2,0.2,0.2,0.4l0.1-0.4L232.1,297.7z M230.7,297.9
		c-0.2,0-0.4,0.1-0.6,0.3c-0.3,0.3-0.5,0.7-0.8,1.2c-0.2,0.4-0.2,0.7-0.2,0.9c0,0.2,0,0.3,0.1,0.4c0.1,0.1,0.2,0.2,0.3,0.2
		c0.2,0,0.3-0.1,0.5-0.2c0.2-0.1,0.3-0.3,0.5-0.5s0.3-0.5,0.4-0.7c0.1-0.4,0.2-0.8,0.2-1c0-0.2,0-0.3-0.1-0.4
		S230.8,297.9,230.7,297.9z"/>
	<path fill="#FFFFFF" d="M234.6,298h2.5v0.1l-2.7,2.8h1.1c0.3,0,0.4,0,0.5,0c0.1,0,0.1-0.1,0.2-0.1c0.1-0.1,0.1-0.2,0.2-0.4h0.1
		l-0.3,1.1h-2.5v-0.1l2.7-2.8h-1.1c-0.2,0-0.4,0-0.4,0c-0.1,0-0.1,0.1-0.2,0.1s-0.1,0.2-0.2,0.3h-0.1L234.6,298z"/>
	<path fill="#FFFFFF" d="M240.8,298l-0.7,2.3c-0.1,0.3-0.2,0.6-0.2,0.7c0,0,0,0.1,0,0.1c0,0,0,0,0.1,0c0,0,0.1,0,0.1-0.1
		c0.1,0,0.2-0.2,0.4-0.5l0.1,0.1c-0.2,0.3-0.4,0.6-0.6,0.7c-0.1,0.1-0.3,0.1-0.4,0.1c-0.1,0-0.2,0-0.2-0.1c-0.1-0.1-0.1-0.1-0.1-0.2
		c0-0.1,0-0.2,0.1-0.4c0-0.2,0.2-0.6,0.4-1.3c-0.4,0.7-0.8,1.2-1.1,1.5c-0.3,0.3-0.6,0.4-0.8,0.4c-0.1,0-0.2,0-0.3-0.1
		c-0.1-0.1-0.1-0.2-0.1-0.3c0-0.2,0.1-0.5,0.2-0.9l0.3-1.2c0.1-0.3,0.1-0.5,0.1-0.5c0,0,0-0.1,0-0.1c0,0,0,0-0.1,0
		c-0.1,0-0.1,0-0.2,0.1s-0.2,0.2-0.4,0.4l-0.1-0.1c0.2-0.3,0.4-0.5,0.6-0.7c0.2-0.1,0.3-0.2,0.5-0.2c0.1,0,0.2,0,0.2,0.1
		c0.1,0.1,0.1,0.1,0.1,0.2c0,0.1-0.1,0.4-0.2,0.8l-0.4,1.3c-0.1,0.3-0.2,0.6-0.2,0.7c0,0,0,0.1,0,0.1c0,0,0.1,0,0.1,0
		c0.1,0,0.2,0,0.3-0.1s0.3-0.3,0.6-0.6c0.2-0.3,0.4-0.6,0.6-0.8c0.1-0.3,0.3-0.7,0.5-1.2l0.1-0.3H240.8z"/>
	<path fill="#FFFFFF" d="M243.1,297l-0.3,1.1h0.6l-0.1,0.2h-0.6l-0.7,2.3c-0.1,0.2-0.1,0.4-0.1,0.5c0,0,0,0.1,0,0.1s0,0,0.1,0
		c0.1,0,0.2,0,0.3-0.1c0.1-0.1,0.2-0.2,0.4-0.5l0.1,0.1c-0.2,0.3-0.5,0.6-0.7,0.7c-0.1,0.1-0.3,0.1-0.4,0.1c-0.1,0-0.2,0-0.3-0.1
		c-0.1-0.1-0.1-0.2-0.1-0.3c0-0.1,0-0.4,0.1-0.6l0.7-2.3h-0.6l0-0.2c0.3-0.1,0.5-0.2,0.7-0.3c0.2-0.2,0.4-0.4,0.6-0.8H243.1z"/>
	<path fill="#FFFFFF" d="M247,297.9l-0.8,2.6l-0.1,0.4c0,0,0,0.1,0,0.1c0,0,0,0.1,0,0.1c0,0,0,0,0.1,0c0,0,0.1,0,0.1-0.1
		c0.1-0.1,0.2-0.2,0.4-0.5l0.1,0.1c-0.2,0.3-0.4,0.5-0.6,0.6c-0.2,0.1-0.4,0.2-0.5,0.2c-0.1,0-0.2,0-0.3-0.1
		c-0.1-0.1-0.1-0.1-0.1-0.2c0-0.1,0-0.3,0.1-0.5l0.1-0.3c-0.3,0.4-0.7,0.8-0.9,0.9c-0.2,0.1-0.4,0.2-0.6,0.2c-0.2,0-0.4-0.1-0.5-0.2
		c-0.1-0.2-0.2-0.4-0.2-0.7c0-0.4,0.1-0.9,0.4-1.3c0.2-0.5,0.6-0.8,0.9-1.1c0.3-0.2,0.6-0.3,0.8-0.3c0.2,0,0.3,0,0.4,0.1
		c0.1,0.1,0.2,0.2,0.2,0.4l0.1-0.4L247,297.9z M245.6,298.1c-0.2,0-0.3,0.1-0.5,0.2c-0.3,0.2-0.5,0.5-0.7,1
		c-0.2,0.4-0.3,0.8-0.3,1.2c0,0.2,0,0.3,0.1,0.4c0.1,0.1,0.2,0.2,0.3,0.2c0.3,0,0.6-0.2,0.9-0.6c0.4-0.6,0.7-1.1,0.7-1.7
		c0-0.2,0-0.4-0.1-0.5C245.9,298.2,245.8,298.1,245.6,298.1z"/>
	<path fill="#FFFFFF" d="M249.6,295.9l-1.3,4.6c-0.1,0.2-0.1,0.4-0.1,0.4c0,0,0,0.1,0,0.1c0,0,0.1,0,0.1,0c0,0,0.1,0,0.2-0.1
		c0.1-0.1,0.3-0.3,0.4-0.5l0.1,0.1c-0.2,0.3-0.5,0.6-0.7,0.7c-0.2,0.1-0.3,0.1-0.4,0.1c-0.1,0-0.2,0-0.2-0.1
		c-0.1-0.1-0.1-0.1-0.1-0.2c0-0.1,0-0.3,0.1-0.6l1.1-3.7c0.1-0.3,0.1-0.5,0.1-0.5c0-0.1,0-0.1-0.1-0.2c0,0-0.1-0.1-0.2-0.1
		c-0.1,0-0.2,0-0.3,0v-0.1L249.6,295.9z"/>
	<path fill="#FFFFFF" d="M253.2,299.1c0,0.4-0.1,0.8-0.3,1.2s-0.5,0.7-0.9,0.9c-0.4,0.2-0.7,0.3-1.1,0.3c-0.4,0-0.6-0.1-0.9-0.3
		c-0.2-0.2-0.3-0.5-0.3-0.9c0-0.4,0.1-0.8,0.3-1.2c0.2-0.4,0.5-0.7,0.9-0.9c0.4-0.2,0.7-0.3,1.1-0.3s0.6,0.1,0.8,0.3
		S253.2,298.8,253.2,299.1z M252.5,298.9c0-0.2-0.1-0.4-0.2-0.6c-0.1-0.1-0.3-0.2-0.5-0.2c-0.4,0-0.7,0.3-1.1,0.8
		c-0.3,0.5-0.5,1.1-0.5,1.6c0,0.2,0.1,0.4,0.2,0.6c0.1,0.1,0.3,0.2,0.5,0.2c0.4,0,0.7-0.3,1-0.8C252.4,300,252.5,299.4,252.5,298.9z
		"/>
	<path fill="#FFFFFF" d="M253.9,298.1l1.3-0.2l-0.6,1.9c0.5-0.8,0.9-1.3,1.2-1.6c0.2-0.2,0.4-0.3,0.5-0.3c0.1,0,0.2,0,0.2,0.1
		c0,0.1,0.1,0.1,0.1,0.2c0,0.2,0,0.3-0.1,0.5c-0.1,0.1-0.2,0.2-0.3,0.2c-0.1,0-0.1,0-0.2-0.1s-0.1-0.1-0.1-0.2c0,0,0-0.1,0-0.1
		c0,0,0,0-0.1,0c0,0-0.1,0-0.1,0c-0.1,0-0.2,0.1-0.3,0.3c-0.2,0.3-0.5,0.6-0.7,1c-0.1,0.2-0.2,0.4-0.3,0.6c-0.1,0.3-0.2,0.5-0.2,0.5
		l-0.1,0.5h-0.6l0.7-2.4c0.1-0.3,0.1-0.5,0.1-0.6c0,0,0-0.1-0.1-0.1c-0.1,0-0.1-0.1-0.2-0.1c-0.1,0-0.2,0-0.3,0L253.9,298.1z"/>
	<path fill="#FFFFFF" d="M259.5,297.9l-0.2,1.2h-0.1c0-0.3-0.1-0.6-0.2-0.8c-0.1-0.2-0.3-0.2-0.5-0.2c-0.2,0-0.3,0-0.4,0.1
		c-0.1,0.1-0.1,0.2-0.1,0.3c0,0.1,0,0.2,0.1,0.2c0,0.1,0.1,0.2,0.2,0.3c0.3,0.4,0.6,0.6,0.7,0.8c0.1,0.2,0.1,0.4,0.1,0.5
		c0,0.3-0.1,0.5-0.3,0.7c-0.2,0.2-0.5,0.3-0.9,0.3c-0.2,0-0.4,0-0.6-0.1c-0.1,0-0.2,0-0.2,0c-0.1,0-0.2,0.1-0.3,0.2h-0.1l0.2-1.3
		h0.1c0,0.4,0.1,0.7,0.2,0.8s0.4,0.2,0.6,0.2c0.2,0,0.4-0.1,0.5-0.2c0.1-0.1,0.2-0.2,0.2-0.4c0-0.1,0-0.2-0.1-0.3
		c-0.1-0.2-0.2-0.4-0.5-0.6c-0.2-0.3-0.4-0.5-0.4-0.6c-0.1-0.1-0.1-0.3-0.1-0.4c0-0.3,0.1-0.5,0.3-0.6c0.2-0.2,0.4-0.3,0.7-0.3
		c0.1,0,0.2,0,0.2,0c0,0,0.1,0,0.3,0.1c0.1,0.1,0.2,0.1,0.3,0.1c0.1,0,0.2-0.1,0.3-0.2H259.5z"/>
	<path fill="#FFFFFF" d="M261.6,297.9l-0.8,2.7c-0.1,0.2-0.1,0.3-0.1,0.3c0,0,0,0.1,0,0.1c0,0,0.1,0,0.1,0c0,0,0.1,0,0.1-0.1
		c0.1-0.1,0.3-0.3,0.4-0.5l0.1,0.1c-0.2,0.3-0.4,0.5-0.6,0.7c-0.2,0.1-0.3,0.2-0.5,0.2c-0.1,0-0.2,0-0.3-0.1
		c-0.1-0.1-0.1-0.1-0.1-0.2c0-0.1,0-0.3,0.1-0.5l0.5-1.8c0.1-0.3,0.1-0.5,0.1-0.5c0-0.1,0-0.1-0.1-0.1c0,0-0.1-0.1-0.2-0.1
		c-0.1,0-0.2,0-0.4,0v-0.2L261.6,297.9z M261.5,296.4c0.1,0,0.2,0,0.3,0.1c0.1,0.1,0.1,0.2,0.1,0.3c0,0.1,0,0.2-0.1,0.3
		c-0.1,0.1-0.2,0.1-0.3,0.1c-0.1,0-0.2,0-0.3-0.1c-0.1-0.1-0.1-0.2-0.1-0.3c0-0.1,0-0.2,0.1-0.3
		C261.3,296.4,261.4,296.4,261.5,296.4z"/>
	<path fill="#FFFFFF" d="M263.7,297.9l-0.5,1.8c0.5-0.7,0.9-1.2,1.1-1.4c0.3-0.2,0.5-0.3,0.7-0.3c0.1,0,0.2,0,0.3,0.1
		c0.1,0.1,0.1,0.2,0.1,0.3c0,0.2,0,0.4-0.1,0.6l-0.5,1.6c-0.1,0.2-0.1,0.3-0.1,0.3c0,0,0,0.1,0,0.1c0,0,0,0,0.1,0c0,0,0.1,0,0.1-0.1
		c0.1-0.1,0.3-0.3,0.5-0.5l0.1,0.1c-0.2,0.3-0.5,0.6-0.7,0.7c-0.2,0.1-0.3,0.2-0.4,0.2c-0.1,0-0.2,0-0.2-0.1
		c-0.1-0.1-0.1-0.1-0.1-0.2c0-0.1,0-0.3,0.1-0.6l0.5-1.6c0.1-0.2,0.1-0.3,0.1-0.5c0-0.1,0-0.1-0.1-0.1c0,0-0.1,0-0.1,0
		c-0.1,0-0.2,0-0.3,0.1c-0.2,0.1-0.4,0.3-0.6,0.6c-0.2,0.3-0.4,0.6-0.7,1c-0.1,0.2-0.2,0.5-0.3,0.7l-0.2,0.6h-0.6l0.7-2.4
		c0.1-0.3,0.1-0.5,0.1-0.5c0-0.1,0-0.1-0.1-0.2c0,0-0.1-0.1-0.2-0.1c0,0-0.1,0-0.2,0l-0.1,0l0-0.1L263.7,297.9z"/>
	<path fill="#FFFFFF" d="M269,300.6c-0.3,0.3-0.5,0.6-0.8,0.7c-0.3,0.2-0.6,0.2-0.9,0.2c-0.4,0-0.7-0.1-0.9-0.3
		c-0.2-0.2-0.3-0.5-0.3-0.8c0-0.4,0.1-0.8,0.3-1.2c0.2-0.4,0.5-0.7,0.9-0.9c0.4-0.2,0.7-0.4,1.1-0.4c0.3,0,0.5,0.1,0.6,0.2
		c0.1,0.1,0.2,0.3,0.2,0.4c0,0.2,0,0.3-0.1,0.4c-0.1,0.1-0.2,0.1-0.3,0.1c-0.1,0-0.1,0-0.2-0.1c-0.1-0.1-0.1-0.1-0.1-0.2
		c0,0,0-0.1,0-0.1c0,0,0.1-0.1,0.1-0.2c0.1-0.1,0.1-0.1,0.1-0.1c0,0,0-0.1,0-0.1c0-0.1,0-0.1-0.1-0.1c-0.1-0.1-0.2-0.1-0.3-0.1
		c-0.3,0-0.5,0.1-0.8,0.3s-0.5,0.4-0.6,0.8c-0.2,0.4-0.3,0.8-0.3,1.2c0,0.3,0.1,0.5,0.2,0.6c0.2,0.2,0.4,0.2,0.6,0.2
		c0.2,0,0.4-0.1,0.6-0.2c0.2-0.1,0.4-0.3,0.7-0.5L269,300.6z"/>
	<path fill="#FFFFFF" d="M270.1,300.8c0.1,0,0.2,0,0.3,0.1c0.1,0.1,0.1,0.2,0.1,0.3s0,0.2-0.1,0.3c-0.1,0.1-0.2,0.1-0.3,0.1
		s-0.2,0-0.3-0.1c-0.1-0.1-0.1-0.2-0.1-0.3s0-0.2,0.1-0.3C269.9,300.8,270,300.8,270.1,300.8z"/>
	<path fill="#FFFFFF" d="M274.6,300.6c-0.3,0.3-0.5,0.6-0.8,0.7c-0.3,0.2-0.6,0.2-0.9,0.2c-0.4,0-0.7-0.1-0.9-0.3
		c-0.2-0.2-0.3-0.5-0.3-0.8c0-0.4,0.1-0.8,0.3-1.2c0.2-0.4,0.5-0.7,0.9-0.9c0.4-0.2,0.7-0.4,1.1-0.4c0.3,0,0.5,0.1,0.6,0.2
		c0.1,0.1,0.2,0.3,0.2,0.4c0,0.2,0,0.3-0.1,0.4c-0.1,0.1-0.2,0.1-0.3,0.1c-0.1,0-0.1,0-0.2-0.1c-0.1-0.1-0.1-0.1-0.1-0.2
		c0,0,0-0.1,0-0.1c0,0,0.1-0.1,0.1-0.2c0.1-0.1,0.1-0.1,0.1-0.1c0,0,0-0.1,0-0.1c0-0.1,0-0.1-0.1-0.1c-0.1-0.1-0.2-0.1-0.3-0.1
		c-0.3,0-0.5,0.1-0.8,0.3s-0.5,0.4-0.6,0.8c-0.2,0.4-0.3,0.8-0.3,1.2c0,0.3,0.1,0.5,0.2,0.6c0.2,0.2,0.4,0.2,0.6,0.2
		c0.2,0,0.4-0.1,0.6-0.2c0.2-0.1,0.4-0.3,0.7-0.5L274.6,300.6z"/>
	<path fill="#FFFFFF" d="M278.7,299.1c0,0.4-0.1,0.8-0.3,1.2s-0.5,0.7-0.9,0.9c-0.4,0.2-0.7,0.3-1.1,0.3c-0.4,0-0.6-0.1-0.9-0.3
		c-0.2-0.2-0.3-0.5-0.3-0.9c0-0.4,0.1-0.8,0.3-1.2c0.2-0.4,0.5-0.7,0.9-0.9c0.4-0.2,0.7-0.3,1.1-0.3s0.6,0.1,0.8,0.3
		S278.7,298.8,278.7,299.1z M278.1,298.9c0-0.2-0.1-0.4-0.2-0.6c-0.1-0.1-0.3-0.2-0.5-0.2c-0.4,0-0.7,0.3-1.1,0.8
		c-0.3,0.5-0.5,1.1-0.5,1.6c0,0.2,0.1,0.4,0.2,0.6c0.1,0.1,0.3,0.2,0.5,0.2c0.4,0,0.7-0.3,1-0.8C277.9,300,278.1,299.4,278.1,298.9z
		"/>
	<path fill="#FFFFFF" d="M280.8,297.9l-0.5,1.8c0.2-0.4,0.4-0.7,0.6-0.9c0.2-0.3,0.5-0.6,0.7-0.7c0.1-0.1,0.3-0.1,0.4-0.1
		c0.1,0,0.2,0,0.3,0.1c0.1,0.1,0.1,0.2,0.1,0.3c0,0.1,0,0.3-0.1,0.5l-0.3,1c0.4-0.8,0.8-1.4,1.2-1.7c0.2-0.2,0.4-0.3,0.6-0.3
		c0.1,0,0.2,0,0.3,0.1c0.1,0.1,0.1,0.2,0.1,0.4c0,0.2,0,0.3-0.1,0.5l-0.4,1.5c-0.1,0.3-0.1,0.5-0.1,0.6c0,0,0,0.1,0,0.1
		c0,0,0,0,0.1,0c0,0,0.1,0,0.1-0.1c0.1-0.1,0.3-0.3,0.4-0.5l0.1,0.1c-0.1,0.1-0.2,0.2-0.3,0.4c-0.2,0.2-0.3,0.3-0.4,0.4
		c-0.1,0.1-0.2,0.1-0.3,0.1c-0.1,0-0.2,0-0.2-0.1c-0.1-0.1-0.1-0.1-0.1-0.2c0-0.1,0.1-0.4,0.2-0.8l0.4-1.3c0.1-0.3,0.1-0.4,0.1-0.5
		c0,0,0-0.1,0-0.1c0-0.1,0-0.1,0-0.2c0,0-0.1-0.1-0.1-0.1c-0.1,0-0.2,0.1-0.3,0.2c-0.4,0.3-0.7,0.8-1,1.4c-0.2,0.4-0.4,0.9-0.6,1.5
		H281l0.7-2.4c0.1-0.3,0.1-0.4,0.1-0.5c0-0.1,0-0.1,0-0.2c0,0-0.1-0.1-0.1-0.1c-0.1,0-0.2,0-0.3,0.1c-0.2,0.1-0.4,0.3-0.6,0.7
		c-0.2,0.3-0.4,0.7-0.6,1c-0.1,0.1-0.2,0.6-0.5,1.4h-0.6l0.7-2.5l0.1-0.3c0,0,0-0.1,0-0.1c0-0.1,0-0.1-0.1-0.2
		c-0.1,0-0.1-0.1-0.2-0.1c0,0-0.1,0-0.3,0l0-0.1L280.8,297.9z"/>
</g>
</svg>
