<?xml version="1.0" encoding="utf-8"?>
<!-- Generator: Adobe Illustrator 18.0.0, SVG Export Plug-In . SVG Version: 6.00 Build 0)  -->
<!DOCTYPE svg PUBLIC "-//W3C//DTD SVG 1.1//EN" "http://www.w3.org/Graphics/SVG/1.1/DTD/svg11.dtd">
<svg version="1.1" id="Layer_1" xmlns="http://www.w3.org/2000/svg" xmlns:xlink="http://www.w3.org/1999/xlink" x="0px" y="0px"
	 viewBox="0 0 483.9 288.7" enable-background="new 0 0 483.9 288.7" xml:space="preserve">
<polygon points="174.1,0 255.2,0 255.2,25.1 227.8,25.1 227.8,134.5 201.4,134.5 201.4,25.1 174.1,25.1 "/>
<polygon points="97.8,151 97.8,285.6 166.4,285.6 166.4,259.6 124.7,259.6 124.7,151 "/>
<path d="M213.2,148c22.9,0,41.5,17.9,41.5,39.8v60.6c0,22-18.6,39.8-41.5,39.8s-41.5-17.9-41.5-39.8v-60.6
	C171.8,165.9,190.4,148,213.2,148z M198.4,248.4c0,7.8,6.6,14.1,14.8,14.1s14.8-6.3,14.8-14.1v-60.6c0-7.8-6.6-14.1-14.8-14.1
	c-8.2,0-14.8,6.3-14.8,14.1V248.4z"/>
<path d="M166.6,0v98.1c0,21.6-17.6,39.1-39.3,39.1S88,119.7,88,98.1V0h25.3v97.1c0,7.6,6.3,13.8,14.1,13.8c7.8,0,14.1-6.2,14.1-13.8
	V0H166.6z"/>
<path d="M483.9,273c0,8.6-7.2,15.5-16.2,15.5s-16.2-7-16.2-15.5s7.2-15.5,16.2-15.5S483.9,264.4,483.9,273z M481,152.3h-26.5v95.9
	H481V152.3z"/>
<polygon points="50.6,25.5 9.1,25.5 9.1,0 80,0 80,24.6 35.7,109 80.9,109 80.9,134.5 5.8,134.5 5.8,110.9 "/>
<path d="M32.2,258l-4.8,27.6H0l29.8-134.7h30.7l29.8,134.7H62.9L58.1,258H32.2z M53.8,233.4l-8.6-49.5l-8.6,49.5H53.8z"/>
<g>
	<path d="M356.6,179c-2.5,11.4-1.8,26.4,10.4,37c19.1,16.5,49.2,10.1,49.2,29.6c0,13.3-11.6,16-15.8,16c-3.6,0-18.5-0.6-18.5-21.3
		c0-1,0-3.1,0-3.1l-27.8,0c-0.3,7.7,0.2,12.5,0.2,12.5c1.9,20.8,20.6,39.1,44.5,39.1c11.9,0,23.5-3.8,31.8-11.6
		c3-2.8,16-16.9,13.4-37.4c-1.9-15.3-12.3-26.1-29-30.7c-16.4-4.5-30.5-6.8-32.9-18.1c-2.4-11.3,5.2-19.3,15-19.3
		c9.8,0,16.5,5.3,16.5,15.4v3.9h27.4V187c0-22.9-16.3-39.3-42.5-39.3C375.9,147.7,360.2,162.6,356.6,179z"/>
</g>
<path d="M305.6,233.4l15,52.2h28l-19.2-59.4c5.9-4,18.5-15,18.5-36.2c0-17.4-8.7-30.7-26.1-36.2c-7.8-2.4-16.1-2.7-19.6-2.7
	c0,0-38.3,0-38.3,0l-0.1,134.6h26.5v-52.2L305.6,233.4z M290.3,208.7v-33.8h14.4c4.8,0,17.1,1.1,17.1,17.9c0,0,0,0,0,0.1
	c0,16.1-13.5,15.9-17.1,15.9L290.3,208.7L290.3,208.7z"/>
</svg>
