<?xml version="1.0" encoding="utf-8"?>
<!-- Generator: Adobe Illustrator 17.1.0, SVG Export Plug-In . SVG Version: 6.00 Build 0)  -->
<!DOCTYPE svg PUBLIC "-//W3C//DTD SVG 1.1//EN" "http://www.w3.org/Graphics/SVG/1.1/DTD/svg11.dtd">
<svg version="1.1" id="Layer_1" xmlns="http://www.w3.org/2000/svg" xmlns:xlink="http://www.w3.org/1999/xlink" x="0px" y="0px"
	 viewBox="0 0 483.9 288.7" enable-background="new 0 0 483.9 288.7" xml:space="preserve">
<g>
	<path d="M304.7,174.8h-14.4v33.8v0h14.4c3.6,0,17.1,0.3,17.1-15.9c0,0,0,0,0-0.1C321.8,176,309.5,174.8,304.7,174.8z"/>
	<path d="M0-3v288.6l29.8-134.7h30.7l29.8,134.7H62.9L58.1,258H32.2l-4.8,27.6H0v3.1h398.8c-23.9,0-42.6-18.2-44.5-39.1
		c0,0-0.5-4.8-0.2-12.5l27.8,0c0,0,0,2.1,0,3.1c0,20.7,14.9,21.3,18.5,21.3c4.2,0,15.8-2.7,15.8-16c0-19.4-30.1-13.1-49.2-29.6
		c-12.2-10.6-12.9-25.6-10.4-37c3.6-16.3,19.3-31.3,42-31.3c26.2,0,42.5,16.4,42.5,39.3v3.9h-27.4V187c0-10.1-6.7-15.4-16.5-15.4
		c-9.8,0-17.4,8-15,19.3c2.4,11.4,16.5,13.7,32.9,18.1c16.7,4.6,27.1,15.4,29,30.7c2.5,20.4-10.4,34.5-13.4,37.4
		c-8.3,7.8-20,11.6-31.8,11.6h85.1V273c0,8.6-7.2,15.5-16.2,15.5s-16.2-7-16.2-15.5s7.2-15.5,16.2-15.5s16.2,7,16.2,15.5V-3H0z
		 M80.9,134.5H5.8v-23.7l44.8-85.4H9.1V0H80l0,24.6L35.7,109h45.2V134.5z M166.4,285.6H97.8V151h26.9v108.6h41.7V285.6z M166.6,98.1
		c0,21.6-17.6,39.1-39.3,39.1c-21.7,0-39.3-17.5-39.3-39.1V0h25.3v97.1c0,7.6,6.3,13.8,14.1,13.8c7.8,0,14.1-6.2,14.1-13.8V0h25.3
		V98.1z M254.7,248.4c0,22-18.6,39.8-41.5,39.8s-41.5-17.9-41.5-39.8v-60.6c0-22,18.6-39.8,41.5-39.8c22.9,0,41.5,17.9,41.5,39.8
		V248.4z M255.2,25.1h-27.4v109.5h-26.4V25.1h-27.3l0-25.1h81.1V25.1z M320.6,285.6l-15-52.2l-15.3,0v52.2h-26.5l0.1-134.6
		c0,0,38.2,0,38.3,0c3.5,0,11.9,0.3,19.6,2.7c17.5,5.5,26.1,18.8,26.1,36.2c0,21.3-12.6,32.3-18.5,36.2l19.2,59.4H320.6z M481,248.2
		h-26.5v-95.9H481V248.2z"/>
	<polygon points="45.2,183.9 36.5,233.4 53.8,233.4 	"/>
	<path d="M213.2,173.8c-8.2,0-14.8,6.3-14.8,14.1v60.6c0,7.8,6.6,14.1,14.8,14.1c8.2,0,14.8-6.3,14.8-14.1v-60.6
		C228.1,180.1,221.4,173.8,213.2,173.8z"/>
</g>
</svg>
